<svg width="90" height="96" viewBox="0 0 90 96" fill="none" xmlns="http://www.w3.org/2000/svg">
<path d="M53.6976 41.8552L53.5938 36.5071" stroke="white" stroke-width="3" stroke-miterlimit="10" stroke-linecap="round" stroke-linejoin="round"/>
<path d="M48.3381 45.6338L43.3138 42.0651" stroke="white" stroke-width="3" stroke-miterlimit="10" stroke-linecap="round" stroke-linejoin="round"/>
<path d="M50.5638 43.0792L47.0431 37.63" stroke="white" stroke-width="3" stroke-miterlimit="10" stroke-linecap="round" stroke-linejoin="round"/>
<path d="M19.1631 15.2548C19.1631 15.2548 2.04114 55.787 2.04114 71.6968C2.04114 87.6067 3.40483 91.925 3.40483 91.925C3.40483 91.925 40.6035 97.3798 61.2105 87.6824C81.8933 77.985 87.8027 64.4995 87.8027 64.4995C87.8027 64.4995 87.5754 41.0894 74.0899 39.5741C68.5593 38.9681 60.756 39.9529 57.9528 47.226C54.089 57.2265 56.8164 60.9388 56.8164 60.9388C53.6344 57.7568 48.4827 53.2869 38.1792 53.2869C27.8757 53.2869 22.4208 64.4995 22.4208 64.4995L23.1784 31.9223L41.5126 30.3313L44.9219 15.2548L34.0123 2.52698L19.1631 15.2548Z" fill="white"/>
<path d="M19.1631 15.2548C19.1631 15.2548 2.04114 55.787 2.04114 71.6968C2.04114 87.6067 3.40483 91.9251 3.40483 91.9251C3.40483 91.9251 40.6035 97.3798 61.2105 87.6824C81.8933 77.985 87.8027 64.4995 87.8027 64.4995C87.8027 64.4995 87.5754 41.0894 74.0899 39.5741C68.5593 38.9681 60.756 39.953 57.9528 47.226C54.089 57.2265 56.8164 60.9388 56.8164 60.9388C53.6344 57.7568 48.4827 53.2869 38.1792 53.2869C27.8757 53.2869 22.4208 64.4995 22.4208 64.4995L23.1784 31.9223L41.5126 30.3313L44.9219 15.2548L34.0123 2.52698L19.1631 15.2548Z" stroke="#4E5A7D" stroke-width="3.5" stroke-miterlimit="10" stroke-linecap="round" stroke-linejoin="round"/>
<path d="M34.1638 74.2727C34.1638 74.2727 43.7855 77.985 52.8011 74.2727" stroke="#4E5A7D" stroke-width="3.5" stroke-miterlimit="10" stroke-linecap="round" stroke-linejoin="round"/>
<path d="M11.9658 75.8636V84.7277H19.1631" stroke="#4E5A7D" stroke-width="3.5" stroke-miterlimit="10" stroke-linecap="round" stroke-linejoin="round"/>
</svg>
