<svg width="308" height="343" viewBox="0 0 308 343" fill="none" xmlns="http://www.w3.org/2000/svg">
<path opacity="0.4" d="M251.195 40.9588C241.344 47.0577 264.405 113.449 275.067 111.939C281.73 111.009 289.204 82.7218 276.341 60.9981C269.62 49.5553 256.062 37.9384 251.195 40.9588Z" fill="#EAFFD0"/>
<path opacity="0.4" d="M99.2141 17.6964C82.072 24.9884 62.861 33.3476 54.9401 52.0817C42.1722 82.1986 71.5503 105.853 57.6001 135.615C49.5019 152.807 38.2118 148.005 22.1927 168.103C3.15902 192.054 -7.95382 232.961 8.65633 265.093C21.3061 289.637 45.0686 299.301 65.2845 307.541C72.2596 310.387 118.425 328.528 162.345 313.351C172.866 309.735 177.122 304.518 186.107 305.407C207.86 307.66 211.111 336.769 230.972 341.512C247.642 345.484 267.03 330.129 279.266 314.715C281.689 311.632 283.876 308.549 285.709 305.585C296.349 285.013 304.92 261.24 307.166 237.407C307.698 231.419 307.875 225.491 307.58 219.562C306.457 204.385 303.383 189.623 294.103 176.166C277.433 150.377 252.075 130.16 251.957 98.0277C251.247 93.1664 250.774 88.1271 250.302 83.0286C247.878 57.4174 245.809 29.9684 220.569 13.6057C187.171 -7.85555 148.217 0.740797 114.583 12.1235C109.027 13.8428 103.943 15.6807 99.2141 17.6964Z" fill="#EAFFD0"/>
</svg>
