<svg width="118" height="72" viewBox="0 0 118 72" fill="none" xmlns="http://www.w3.org/2000/svg">
<path d="M35.259 63.4292L31.6982 63.8838C28.4405 64.3384 25.4858 62.0655 25.0312 58.8078L20.2583 23.5031C19.8037 20.2454 22.0766 17.2907 25.3343 16.8362L28.8951 16.3816C32.1528 15.927 35.1075 18.1999 35.562 21.4576L40.335 56.7622C40.7896 60.02 38.5167 62.9746 35.259 63.4292Z" fill="white"/>
<path d="M18.9703 58.0502C15.7126 58.5047 12.7579 56.2319 12.3033 52.9742L9.57594 32.5187C9.12137 29.2609 11.3942 26.3063 14.6519 25.8517C17.9097 25.3971 20.8643 27.6699 21.3189 30.9277L24.0463 51.3074C24.5009 54.5651 22.228 57.5956 18.9703 58.0502Z" fill="white"/>
<path d="M90.9433 55.9288L94.5041 55.4743C97.7618 55.0197 100.035 52.065 99.5801 48.8073L94.8072 13.5026C94.3526 10.2449 91.3979 7.97208 88.1402 8.42665L84.5794 8.88119C81.3217 9.33576 79.0489 12.2905 79.5034 15.5482L84.2764 50.8529C84.7309 54.1106 87.6856 56.3834 90.9433 55.9288Z" fill="white"/>
<path d="M105.262 46.383C108.52 45.9284 110.793 42.9737 110.338 39.716L107.611 19.3363C107.156 16.0785 104.202 13.8057 100.944 14.2603C97.6861 14.7148 95.4132 17.6695 95.8678 20.9273L98.5952 41.307C98.974 44.5647 102.004 46.8375 105.262 46.383Z" fill="white"/>
<path d="M38.8264 45.1458L82.7522 39.2379L81.1162 27.0739L37.1904 32.9818L38.8264 45.1458Z" fill="white"/>
<path d="M35.259 63.4292L31.6982 63.8838C28.4405 64.3384 25.4858 62.0655 25.0312 58.8078L20.2583 23.5031C19.8037 20.2454 22.0766 17.2907 25.3343 16.8362L28.8951 16.3816C32.1528 15.927 35.1075 18.1999 35.562 21.4576L40.335 56.7623C40.7896 60.02 38.5167 62.9746 35.259 63.4292Z" stroke="#4E5A7D" stroke-width="3.5" stroke-miterlimit="10" stroke-linecap="round" stroke-linejoin="round"/>
<path d="M18.9703 58.0502C15.7126 58.5047 12.7579 56.2319 12.3033 52.9742L9.57594 32.5187C9.12137 29.2609 11.3942 26.3063 14.6519 25.8517C17.9097 25.3971 20.8643 27.6699 21.3189 30.9277L24.0463 51.3074C24.5009 54.5651 22.228 57.5956 18.9703 58.0502Z" stroke="#4E5A7D" stroke-width="3.5" stroke-miterlimit="10" stroke-linecap="round" stroke-linejoin="round"/>
<path d="M90.9433 55.9288L94.5041 55.4743C97.7618 55.0197 100.035 52.065 99.5801 48.8073L94.8072 13.5026C94.3526 10.2449 91.3979 7.97208 88.1402 8.42665L84.5794 8.88119C81.3217 9.33576 79.0489 12.2905 79.5034 15.5482L84.2764 50.8529C84.7309 54.1106 87.6856 56.3834 90.9433 55.9288Z" stroke="#4E5A7D" stroke-width="3.5" stroke-miterlimit="10" stroke-linecap="round" stroke-linejoin="round"/>
<path d="M105.262 46.383C108.52 45.9284 110.793 42.9737 110.338 39.716L107.611 19.3363C107.156 16.0785 104.202 13.8057 100.944 14.2603C97.6861 14.7148 95.4132 17.6695 95.8678 20.9273L98.5952 41.307C98.974 44.5647 102.004 46.8375 105.262 46.383Z" stroke="#4E5A7D" stroke-width="3.5" stroke-miterlimit="10" stroke-linecap="round" stroke-linejoin="round"/>
<path d="M38.8264 45.1458L82.7522 39.2379L81.1162 27.0739L37.1904 32.9818L38.8264 45.1458Z" stroke="#4E5A7D" stroke-width="3.5" stroke-miterlimit="10" stroke-linecap="round" stroke-linejoin="round"/>
<path d="M110.717 11.836L115.869 10.3965" stroke="white" stroke-width="3" stroke-miterlimit="10" stroke-linecap="round" stroke-linejoin="round"/>
<path d="M105.717 7.59329L107.914 1.83545" stroke="white" stroke-width="3" stroke-miterlimit="10" stroke-linecap="round" stroke-linejoin="round"/>
<path d="M108.747 9.10853L113.141 4.33557" stroke="white" stroke-width="3" stroke-miterlimit="10" stroke-linecap="round" stroke-linejoin="round"/>
<path d="M12.0763 64.7172L10.7883 69.8689" stroke="white" stroke-width="3" stroke-miterlimit="10" stroke-linecap="round" stroke-linejoin="round"/>
<path d="M7.68208 59.8684L2 62.217" stroke="white" stroke-width="3" stroke-miterlimit="10" stroke-linecap="round" stroke-linejoin="round"/>
<path d="M9.27304 62.8231L4.65161 67.3688" stroke="white" stroke-width="3" stroke-miterlimit="10" stroke-linecap="round" stroke-linejoin="round"/>
</svg>
