<svg width="734" height="475" viewBox="0 0 734 475" fill="none" xmlns="http://www.w3.org/2000/svg">
<g opacity="0.2">
<path d="M46.8812 441.12C52.7224 438.756 55.5618 432.073 53.2091 426.204L32.9274 375.341C30.5747 369.472 23.9223 366.619 18.0812 368.983C12.2401 371.347 9.40063 378.031 11.7533 383.9L32.035 434.762C34.3877 440.631 41.0401 443.484 46.8812 441.12Z" stroke="#4E5A7D" stroke-width="6" stroke-miterlimit="10" stroke-linecap="round" stroke-linejoin="round"/>
<path d="M23.7601 432.48C27.2486 431.094 28.9522 427.019 27.5731 423.514L16.2153 395.067C14.8362 391.562 10.7798 389.85 7.29137 391.236C3.80292 392.621 2.09925 396.697 3.47841 400.202L14.8362 428.649C16.2153 432.154 20.1905 433.866 23.7601 432.48Z" stroke="#4E5A7D" stroke-width="6" stroke-miterlimit="10" stroke-linecap="round" stroke-linejoin="round"/>
<path d="M112.026 414.874C106.185 417.238 99.5326 414.385 97.1799 408.516L76.8982 357.653C74.5455 351.784 77.385 345.101 83.2261 342.737C89.0672 340.373 95.7196 343.226 98.0723 349.095L118.354 399.957C120.707 405.826 117.867 412.51 112.026 414.874Z" stroke="#4E5A7D" stroke-width="6" stroke-miterlimit="10" stroke-linecap="round" stroke-linejoin="round"/>
<path d="M122.816 392.621C119.328 394.007 115.271 392.295 113.892 388.79L102.534 360.343C101.155 356.838 102.859 352.763 106.347 351.377C109.836 349.991 113.892 351.703 115.271 355.208L126.629 383.655C128.089 387.16 126.386 391.154 122.816 392.621Z" stroke="#4E5A7D" stroke-width="6" stroke-miterlimit="10" stroke-linecap="round" stroke-linejoin="round"/>
<path d="M83.7501 374.95L39.9197 392.593L46.0142 407.878L89.8447 390.235L83.7501 374.95Z" stroke="#4E5A7D" stroke-width="6" stroke-miterlimit="10" stroke-linecap="round" stroke-linejoin="round"/>
<path d="M92.0689 471.85C98.3968 471.85 103.508 466.715 103.508 460.357V405.582C103.508 399.224 98.3968 394.089 92.0689 394.089C85.741 394.089 80.63 399.224 80.63 405.582V460.438C80.63 466.715 85.741 471.85 92.0689 471.85Z" fill="white"/>
<path d="M73.8153 455.222C77.6283 455.222 80.7111 452.124 80.7111 448.293V417.645C80.7111 413.814 77.6283 410.717 73.8153 410.717C70.0024 410.717 66.9196 413.814 66.9196 417.645V448.293C66.9196 452.124 70.0024 455.222 73.8153 455.222Z" fill="white"/>
<path d="M92.0689 471.85C98.3968 471.85 103.508 466.715 103.508 460.357V405.582C103.508 399.224 98.3968 394.089 92.0689 394.089C85.741 394.089 80.63 399.224 80.63 405.582V460.438C80.63 466.715 85.741 471.85 92.0689 471.85Z" stroke="#4E5A7D" stroke-width="6" stroke-miterlimit="10" stroke-linecap="round" stroke-linejoin="round"/>
<path d="M73.8153 455.222C77.6283 455.222 80.7111 452.124 80.7111 448.293V417.645C80.7111 413.814 77.6283 410.717 73.8153 410.717C70.0024 410.717 66.9196 413.814 66.9196 417.645V448.293C66.9196 452.124 70.0024 455.222 73.8153 455.222Z" stroke="#4E5A7D" stroke-width="6" stroke-miterlimit="10" stroke-linecap="round" stroke-linejoin="round"/>
<path d="M162.244 471.85C155.916 471.85 150.805 466.715 150.805 460.357V405.582C150.805 399.224 155.916 394.089 162.244 394.089C168.571 394.089 173.682 399.224 173.682 405.582V460.438C173.682 466.715 168.571 471.85 162.244 471.85Z" stroke="#4E5A7D" stroke-width="6" stroke-miterlimit="10" stroke-linecap="round" stroke-linejoin="round"/>
<path d="M180.578 455.222C176.765 455.222 173.682 452.124 173.682 448.293V417.645C173.682 413.814 176.765 410.717 180.578 410.717C184.391 410.717 187.474 413.814 187.474 417.645V448.293C187.393 452.124 184.31 455.222 180.578 455.222Z" stroke="#4E5A7D" stroke-width="6" stroke-miterlimit="10" stroke-linecap="round" stroke-linejoin="round"/>
<path d="M150.724 424.248H103.508V440.713H150.724V424.248Z" stroke="#4E5A7D" stroke-width="6" stroke-miterlimit="10" stroke-linecap="round" stroke-linejoin="round"/>
</g>
<g opacity="0.2">
<path d="M567.472 27.0457V258.129" stroke="#4E5A7D" stroke-width="12" stroke-miterlimit="10" stroke-linejoin="round"/>
<path d="M584.671 276.632H553.924V393.192H584.671V276.632Z" fill="#4E5A7D"/>
<path d="M499.163 27.0457H487.481V471.198H499.163V27.0457Z" stroke="#4E5A7D" stroke-width="6" stroke-miterlimit="10" stroke-linecap="round" stroke-linejoin="round"/>
<path d="M650.465 27.0457H638.783V471.198H650.465V27.0457Z" stroke="#4E5A7D" stroke-width="6" stroke-miterlimit="10" stroke-linecap="round" stroke-linejoin="round"/>
<path d="M671.152 27.0457H466.794C459.33 27.0457 452.921 23.1332 451.38 17.6719L447.242 3H690.704L686.567 17.6719C685.025 23.1332 678.616 27.0457 671.152 27.0457Z" stroke="#4E5A7D" stroke-width="6" stroke-miterlimit="10" stroke-linecap="round" stroke-linejoin="round"/>
<path d="M671.558 55.3298H568.933H466.307L410.573 75.7075C405.543 77.5008 403.028 83.125 404.813 88.0972C406.598 93.1508 412.196 95.6777 417.144 93.8844L468.092 75.3C469.147 74.8924 470.282 74.7294 471.418 74.7294H568.933H666.447C667.583 74.7294 668.719 74.8924 669.773 75.3L720.721 93.8844C725.751 95.6777 731.267 93.1508 733.052 88.0972C734.837 83.0435 732.322 77.5008 727.292 75.7075L671.558 55.3298Z" fill="white"/>
<path d="M671.558 55.3298H568.933H466.307L410.573 75.7075C405.543 77.5008 403.028 83.125 404.813 88.0972C406.598 93.1508 412.196 95.6777 417.144 93.8844L468.092 75.3C469.147 74.8924 470.282 74.7294 471.418 74.7294H568.933H666.447C667.583 74.7294 668.719 74.8924 669.773 75.3L720.721 93.8844C725.751 95.6777 731.267 93.1508 733.052 88.0972C734.837 83.0435 732.322 77.5008 727.292 75.7075L671.558 55.3298Z" fill="#4E5A7D"/>
<path d="M625.721 258.129H509.304V276.55H625.721V258.129Z" fill="white"/>
<path d="M625.721 287.31H509.304V305.731H625.721V287.31Z" fill="white"/>
<path d="M625.721 316.409H509.304V334.83H625.721V316.409Z" fill="white"/>
<path d="M625.721 345.508H509.304V363.93H625.721V345.508Z" fill="white"/>
<path d="M625.721 374.608H509.304V393.029H625.721V374.608Z" fill="white"/>
<path d="M625.721 258.129H509.304V276.55H625.721V258.129Z" stroke="#4E5A7D" stroke-width="6" stroke-miterlimit="10" stroke-linecap="round" stroke-linejoin="round"/>
<path d="M625.721 287.31H509.304V305.731H625.721V287.31Z" stroke="#4E5A7D" stroke-width="6" stroke-miterlimit="10" stroke-linecap="round" stroke-linejoin="round"/>
<path d="M625.721 316.409H509.304V334.83H625.721V316.409Z" stroke="#4E5A7D" stroke-width="6" stroke-miterlimit="10" stroke-linecap="round" stroke-linejoin="round"/>
<path d="M625.721 345.508H509.304V363.93H625.721V345.508Z" stroke="#4E5A7D" stroke-width="6" stroke-miterlimit="10" stroke-linecap="round" stroke-linejoin="round"/>
<path d="M625.721 374.608H509.304V393.029H625.721V374.608Z" stroke="#4E5A7D" stroke-width="6" stroke-miterlimit="10" stroke-linecap="round" stroke-linejoin="round"/>
<path d="M660.849 372.57H477.908V395.067H660.849V372.57Z" fill="white"/>
<path d="M590.918 395.067H547.921V471.198H590.918V395.067Z" fill="#4E5A7D"/>
<path d="M660.849 372.57H477.908V395.067H660.849V372.57Z" stroke="#4E5A7D" stroke-width="6" stroke-miterlimit="10" stroke-linecap="round" stroke-linejoin="round"/>
<path d="M676.02 469.975H462.738L469.39 447.478H669.368L676.02 469.975Z" fill="white"/>
<path d="M590.918 395.067H547.921V471.198H590.918V395.067Z" stroke="#4E5A7D" stroke-width="6" stroke-miterlimit="10" stroke-linecap="round" stroke-linejoin="round"/>
<path d="M676.02 471.605H462.738L469.39 449.108H669.368L676.02 471.605Z" fill="white"/>
<path d="M676.02 471.605H462.738L469.39 449.108H669.368L676.02 471.605Z" stroke="#4E5A7D" stroke-width="6" stroke-miterlimit="10" stroke-linecap="round" stroke-linejoin="round"/>
</g>
<path d="M528.856 416.26H289.775C283.204 416.26 277.931 410.961 277.931 404.359V398.409C277.931 391.806 283.204 386.508 289.775 386.508H528.856C535.427 386.508 540.7 391.806 540.7 398.409V404.359C540.7 410.961 535.427 416.26 528.856 416.26Z" fill="white"/>
<path d="M528.856 416.26H289.775C283.204 416.26 277.931 410.961 277.931 404.359V398.409C277.931 391.806 283.204 386.508 289.775 386.508H528.856C535.427 386.508 540.7 391.806 540.7 398.409V404.359C540.7 410.961 535.427 416.26 528.856 416.26Z" stroke="#328FDB" stroke-width="6" stroke-miterlimit="10" stroke-linecap="round" stroke-linejoin="round"/>
<path d="M335.044 315.92H310.381V471.768H335.044V315.92Z" fill="white"/>
<path d="M335.044 315.92H310.381V471.768H335.044V315.92Z" stroke="#328FDB" stroke-width="6" stroke-miterlimit="10" stroke-linecap="round" stroke-linejoin="round"/>
<path d="M513.442 416.26H488.779V471.687H513.442V416.26Z" stroke="#328FDB" stroke-width="6" stroke-miterlimit="10" stroke-linecap="round" stroke-linejoin="round"/>
<path d="M322.713 356.675C353.001 356.675 377.554 332.005 377.554 301.574C377.554 271.142 353.001 246.473 322.713 246.473C292.424 246.473 267.871 271.142 267.871 301.574C267.871 332.005 292.424 356.675 322.713 356.675Z" fill="white"/>
<path d="M322.713 356.675C353.001 356.675 377.554 332.005 377.554 301.574C377.554 271.142 353.001 246.473 322.713 246.473C292.424 246.473 267.871 271.142 267.871 301.574C267.871 332.005 292.424 356.675 322.713 356.675Z" stroke="#328FDB" stroke-width="6" stroke-miterlimit="10" stroke-linecap="round" stroke-linejoin="round"/>
<path d="M322.713 338.091C342.785 338.091 359.057 321.742 359.057 301.574C359.057 281.406 342.785 265.057 322.713 265.057C302.64 265.057 286.368 281.406 286.368 301.574C286.368 321.742 302.64 338.091 322.713 338.091Z" stroke="#328FDB" stroke-width="6" stroke-miterlimit="10" stroke-linecap="round" stroke-linejoin="round"/>
<path d="M322.713 315.268C330.24 315.268 336.342 309.137 336.342 301.574C336.342 294.011 330.24 287.88 322.713 287.88C315.185 287.88 309.083 294.011 309.083 301.574C309.083 309.137 315.185 315.268 322.713 315.268Z" stroke="#328FDB" stroke-width="6" stroke-miterlimit="10" stroke-linecap="round" stroke-linejoin="round"/>
<path d="M359.057 386.59H298.05C293.426 386.59 289.613 382.84 289.613 378.113V373.874C289.613 369.228 293.345 365.397 298.05 365.397H359.057C363.682 365.397 367.495 369.146 367.495 373.874V378.113C367.413 382.759 363.682 386.59 359.057 386.59Z" fill="#328FDB"/>
<path d="M130.848 471.198H520.256" stroke="#4E5A7D" stroke-width="6" stroke-miterlimit="10" stroke-linecap="round" stroke-linejoin="round"/>
<path d="M542.161 471.198H582.238" stroke="#4E5A7D" stroke-width="6" stroke-miterlimit="10" stroke-linecap="round" stroke-linejoin="round"/>
<path d="M86.6334 471.198H114.784" stroke="#4E5A7D" stroke-width="6" stroke-miterlimit="10" stroke-linecap="round" stroke-linejoin="round"/>
<path d="M596.354 471.198H603.33" stroke="#4E5A7D" stroke-width="6" stroke-miterlimit="10" stroke-linecap="round" stroke-linejoin="round"/>
<path d="M431.098 208.081C431.098 208.081 481.316 304.264 501.029 428.894C503.707 445.685 496 456.281 487.806 462.639C480.585 468.263 471.58 471.116 462.413 471.116H190.881C180.578 471.116 172.141 462.721 172.141 452.287C172.141 441.772 180.741 433.295 191.206 433.458L221.385 434.029L258.785 330.51C258.785 330.51 359.95 426.856 430.043 392.866C479.287 368.983 426.068 234.653 411.303 219.818C396.619 205.147 431.098 208.081 431.098 208.081Z" fill="#C4DBA7"/>
<path d="M267.222 342.248C267.222 342.248 368.387 438.593 438.481 404.603C487.725 380.721 434.505 246.391 419.74 231.556C407.652 219.411 421.769 209.222 429.719 209.548C426.231 202.131 431.017 208.081 431.017 208.081C431.017 208.081 396.538 205.147 411.303 219.982C426.068 234.817 479.206 369.146 430.044 393.029C359.95 427.019 258.785 330.673 258.785 330.673" fill="#EAFFD0"/>
<path d="M450.406 340.21C453.083 294.156 425.581 225.606 413.412 208.978C407.977 210.363 404.894 213.461 411.384 219.982C421.201 229.844 447.891 292.282 450.406 340.21Z" fill="#C0DF99"/>
<path d="M500.948 428.568C499.164 438.023 493.647 444.707 487.806 449.271C480.585 454.896 471.58 457.749 462.413 457.749H190.881C182.931 457.749 176.116 452.695 173.439 445.685C172.628 447.804 172.222 450.005 172.222 452.369C172.222 462.721 180.578 471.198 190.963 471.198H462.494C471.662 471.198 480.667 468.345 487.887 462.721C496.081 456.363 503.707 445.766 501.111 428.975C501.029 428.812 500.948 428.731 500.948 428.568Z" fill="#C0DF99"/>
<path d="M181.633 438.186L211.812 438.756L213.516 434.029L193.234 433.621C188.448 433.54 183.986 435.251 180.659 438.186C180.903 438.186 181.308 438.186 181.633 438.186Z" fill="#C0DF99"/>
<path d="M502.895 428.975C483.182 304.345 432.964 208.162 432.964 208.162C432.964 208.162 411.871 206.369 409.762 212.646C415.603 212.238 421.363 212.727 421.363 212.727C421.363 212.727 471.58 308.91 491.294 433.54C493.971 450.331 486.264 460.927 478.071 467.285C476.691 468.345 475.312 469.323 473.852 470.138C479.531 468.834 484.966 466.307 489.672 462.721C497.947 456.363 505.573 445.766 502.895 428.975Z" fill="#C0DF99"/>
<path d="M319.63 375.423C284.826 355.452 258.866 330.673 258.866 330.673L221.466 434.192L197.047 433.703C209.622 442.343 224.874 447.478 241.261 447.478C282.311 447.478 316.06 415.77 319.63 375.423Z" fill="#C0DF99"/>
<path d="M316.628 435.007H268.601C264.95 435.007 261.949 431.991 261.949 428.323V420.824C261.949 417.156 264.95 414.14 268.601 414.14H316.628C320.279 414.14 323.28 417.156 323.28 420.824V428.323C323.28 431.991 320.279 435.007 316.628 435.007Z" fill="#C0DF99"/>
<path d="M431.098 208.081C431.098 208.081 481.316 304.264 501.029 428.894C503.707 445.685 496 456.281 487.806 462.639C480.585 468.263 471.58 471.116 462.413 471.116H190.881C180.578 471.116 172.141 462.721 172.141 452.287C172.141 441.772 180.741 433.295 191.206 433.458L221.385 434.029L258.785 330.51C258.785 330.51 359.95 426.856 430.043 392.866C479.287 368.983 426.068 234.653 411.303 219.818C396.619 205.147 431.098 208.081 431.098 208.081Z" stroke="#4E5A7D" stroke-width="6" stroke-miterlimit="10" stroke-linecap="round" stroke-linejoin="round"/>
<path d="M474.907 402.403C476.854 412.102 478.72 422.128 480.342 432.236C481.316 438.43 479.855 442.261 475.069 446.011C471.662 448.619 467.2 450.086 462.494 450.086H445.701" stroke="#4E5A7D" stroke-width="4" stroke-miterlimit="10" stroke-linecap="round" stroke-linejoin="round"/>
<path d="M468.498 373.955C469.714 378.928 470.931 383.981 472.067 389.035" stroke="#4E5A7D" stroke-width="4" stroke-miterlimit="10" stroke-linecap="round" stroke-linejoin="round"/>
<path d="M186.014 238.403L208.324 318.202L226.658 312.252L206.296 235.061L186.014 238.403Z" fill="#4E5A7D"/>
<path d="M186.014 238.403L208.324 318.202L226.658 312.252L206.296 235.061L186.014 238.403Z" stroke="#4E5A7D" stroke-width="6" stroke-miterlimit="10" stroke-linecap="round" stroke-linejoin="round"/>
<path d="M151.859 240.278L153.888 248.266C156.078 256.906 164.272 262.612 173.115 261.471C186.501 259.84 204.43 256.743 209.46 251.608C217.897 243.131 242.965 240.848 251.483 240.848C260.002 240.848 276.227 220.878 266.573 222.182C197.128 231.312 165.894 208.978 154.131 226.258C151.373 230.333 150.643 235.469 151.859 240.278Z" stroke="#4E5A7D" stroke-width="6" stroke-miterlimit="10" stroke-linecap="round" stroke-linejoin="round"/>
<path d="M151.859 240.278L153.888 248.266C156.078 256.906 164.272 262.612 173.115 261.471C186.501 259.84 204.43 256.743 209.46 251.608C217.897 243.131 242.965 240.848 251.483 240.848C260.002 240.848 276.227 220.878 266.573 222.182C197.128 231.312 165.894 208.978 154.131 226.258C151.373 230.333 150.643 235.469 151.859 240.278Z" fill="#596F9E"/>
<path d="M229.579 224.383C185.446 223.976 163.542 212.32 154.131 226.176C152.184 229.029 151.21 232.453 151.292 235.876C158.674 237.18 166.787 237.914 175.305 237.914C199.075 237.914 219.6 232.453 229.579 224.383Z" fill="#6982B0"/>
<path d="M151.292 240.848L153.888 248.266C156.078 256.906 164.272 262.612 173.115 261.471C186.501 259.84 204.43 256.743 209.46 251.608C217.897 243.131 242.965 240.848 251.483 240.848C260.002 240.848 276.227 220.878 266.573 222.182C197.128 231.312 165.894 208.978 154.131 226.258C151.373 230.333 150.075 236.039 151.292 240.848Z" stroke="#4E5A7D" stroke-width="6" stroke-miterlimit="10" stroke-linecap="round" stroke-linejoin="round"/>
<path d="M440.671 270.6C438.399 270.6 436.128 269.54 434.668 267.584C432.153 264.242 432.802 259.514 436.047 256.987C436.371 256.743 468.66 231.638 473.933 206.369C478.476 184.443 466.307 124.369 461.196 103.095C460.223 99.0196 462.738 94.9441 466.794 93.9659C470.85 92.9878 474.907 95.5146 475.88 99.5902C476.691 102.851 494.945 179.715 488.698 209.467C482.289 240.359 446.674 267.91 445.214 269.051C443.835 270.029 442.212 270.6 440.671 270.6Z" fill="#84BDE1"/>
<path d="M461.196 103.014C463.062 110.757 465.82 123.554 468.417 137.819C470.85 132.358 472.473 123.88 472.473 114.425C472.473 106.356 471.337 99.0196 469.471 93.6399C468.579 93.5584 467.686 93.5584 466.794 93.803C462.738 94.8626 460.223 99.0196 461.196 103.014Z" fill="#97CCE9"/>
<path d="M399.134 258.129C393.131 255.276 387.208 252.504 381.205 249.651C398.485 224.791 411.384 197.159 419.416 167.896C425.419 170.749 431.341 173.52 437.345 176.373C429.313 205.636 416.333 233.268 399.134 258.129Z" fill="#BCAFAA"/>
<path d="M425.338 172.868C429.151 174.662 432.964 176.455 436.777 178.248C436.939 177.596 437.102 177.025 437.264 176.373C431.26 173.52 425.338 170.749 419.335 167.896C411.303 197.159 398.404 224.791 381.124 249.651C383.477 250.793 385.829 251.852 388.182 252.993C404.894 228.54 417.469 201.479 425.338 172.868Z" fill="#A0A0A0"/>
<path d="M399.134 258.129C393.131 255.276 387.208 252.504 381.205 249.651C398.485 224.791 411.384 197.159 419.416 167.896C425.419 170.749 431.341 173.52 437.345 176.373C429.313 205.636 416.333 233.268 399.134 258.129Z" stroke="#4E5A7D" stroke-width="6" stroke-miterlimit="10" stroke-linecap="round" stroke-linejoin="round"/>
<path d="M440.671 270.6C438.399 270.6 436.128 269.54 434.668 267.584C432.153 264.242 432.802 259.514 436.047 256.987C436.371 256.743 468.66 231.638 473.933 206.369C478.476 184.443 466.307 124.369 461.196 103.095C460.223 99.0196 462.738 94.9441 466.794 93.9659C470.85 92.9878 474.907 95.5146 475.88 99.5902C476.691 102.851 494.945 179.715 488.698 209.467C482.289 240.359 446.674 267.91 445.214 269.051C443.835 270.029 442.212 270.6 440.671 270.6Z" stroke="#4E5A7D" stroke-width="6" stroke-miterlimit="10" stroke-linecap="round" stroke-linejoin="round"/>
<path d="M241.261 437.941C279.435 437.941 310.381 406.849 310.381 368.494C310.381 330.14 279.435 299.047 241.261 299.047C203.087 299.047 172.141 330.14 172.141 368.494C172.141 406.849 203.087 437.941 241.261 437.941Z" fill="#E4F2F9"/>
<path d="M241.261 312.007C277.2 312.007 306.812 339.639 310.057 374.933C310.219 372.814 310.381 370.613 310.381 368.413C310.381 330.103 279.472 298.965 241.261 298.965C203.05 298.965 172.141 330.021 172.141 368.413C172.141 370.613 172.222 372.733 172.466 374.933C175.792 339.639 205.322 312.007 241.261 312.007Z" fill="#C4E8F7"/>
<path d="M241.261 437.941C279.435 437.941 310.381 406.849 310.381 368.494C310.381 330.14 279.435 299.047 241.261 299.047C203.087 299.047 172.141 330.14 172.141 368.494C172.141 406.849 203.087 437.941 241.261 437.941Z" stroke="#4E5A7D" stroke-width="6" stroke-miterlimit="10" stroke-linecap="round" stroke-linejoin="round"/>
<path d="M245.318 390.828C254.727 390.828 262.354 383.164 262.354 373.711C262.354 364.257 254.727 356.594 245.318 356.594C235.909 356.594 228.281 364.257 228.281 373.711C228.281 383.164 235.909 390.828 245.318 390.828Z" fill="#D7DADB"/>
<path d="M241.261 383.818C249.685 383.818 256.513 376.957 256.513 368.494C256.513 360.031 249.685 353.17 241.261 353.17C232.838 353.17 226.009 360.031 226.009 368.494C226.009 376.957 232.838 383.818 241.261 383.818Z" fill="#4E5A7D"/>
<path d="M241.261 383.818C249.685 383.818 256.513 376.957 256.513 368.494C256.513 360.031 249.685 353.17 241.261 353.17C232.838 353.17 226.009 360.031 226.009 368.494C226.009 376.957 232.838 383.818 241.261 383.818Z" stroke="#4E5A7D" stroke-width="6" stroke-miterlimit="10" stroke-linecap="round" stroke-linejoin="round"/>
<path d="M243.237 363.902L236.088 369.669L277.993 422.107L285.141 416.341L243.237 363.902Z" fill="#4E5A7D"/>
<path d="M243.237 363.902L236.088 369.669L277.993 422.107L285.141 416.341L243.237 363.902Z" stroke="#4E5A7D" stroke-width="6" stroke-miterlimit="10" stroke-linecap="round" stroke-linejoin="round"/>
<path d="M312.572 427.671H264.545C260.894 427.671 257.892 424.655 257.892 420.987V413.488C257.892 409.82 260.894 406.804 264.545 406.804H312.572C316.222 406.804 319.224 409.82 319.224 413.488V420.987C319.224 424.655 316.222 427.671 312.572 427.671Z" fill="#596F9E"/>
<path d="M312.572 427.671H264.545C260.894 427.671 257.892 424.655 257.892 420.987V413.488C257.892 409.82 260.894 406.804 264.545 406.804H312.572C316.222 406.804 319.224 409.82 319.224 413.488V420.987C319.224 424.655 316.222 427.671 312.572 427.671Z" stroke="#4E5A7D" stroke-width="6" stroke-miterlimit="10" stroke-linecap="round" stroke-linejoin="round"/>
<g opacity="0.2">
<path d="M168.004 49.3796H72.1929V162.272H168.004V49.3796Z" stroke="#4E5A7D" stroke-width="6" stroke-miterlimit="10" stroke-linecap="round" stroke-linejoin="round"/>
<path d="M154.05 62.5027H86.1467V149.067H154.05V62.5027Z" stroke="#4E5A7D" stroke-width="6" stroke-miterlimit="10" stroke-linecap="round" stroke-linejoin="round"/>
<path d="M133.93 98.123C133.93 106.519 128.17 113.366 121.112 113.366C114.054 113.366 108.294 106.519 108.294 98.123C108.294 89.7274 114.054 87.0375 121.112 87.0375C128.17 87.0375 133.93 89.7274 133.93 98.123Z" stroke="#4E5A7D" stroke-width="6" stroke-miterlimit="10" stroke-linecap="round" stroke-linejoin="round"/>
<path d="M146.099 149.067H95.4763V138.715C95.4763 124.696 106.834 113.284 120.788 113.284C134.742 113.284 146.099 124.696 146.099 138.715V149.067V149.067Z" stroke="#4E5A7D" stroke-width="6" stroke-miterlimit="10" stroke-linecap="round" stroke-linejoin="round"/>
</g>
<g opacity="0.2">
<path d="M255.215 128.526C255.215 128.526 242.965 154.691 248.887 165.695C254.809 176.699 283.447 181.671 287.017 163.576C290.586 145.481 275.172 145.725 275.172 145.725" stroke="#4E5A7D" stroke-width="6" stroke-miterlimit="10" stroke-linecap="round" stroke-linejoin="round"/>
<path d="M282.717 126.733C282.717 126.733 287.585 135.944 287.585 142.791C287.585 149.638 283.691 148.741 283.691 148.741" stroke="#4E5A7D" stroke-width="6" stroke-miterlimit="10" stroke-linecap="round" stroke-linejoin="round"/>
<path d="M268.682 131.053C278.315 131.053 286.124 126.273 286.124 120.375C286.124 114.478 278.315 109.697 268.682 109.697C259.049 109.697 251.24 114.478 251.24 120.375C251.24 126.273 259.049 131.053 268.682 131.053Z" stroke="#4E5A7D" stroke-width="6" stroke-miterlimit="10" stroke-linecap="round" stroke-linejoin="round"/>
<path d="M324.66 118.582C324.66 118.582 343.4 141.813 339.83 153.876C336.342 165.94 309.408 176.781 302.106 159.908C294.805 143.035 309.976 139.938 309.976 139.938" stroke="#4E5A7D" stroke-width="6" stroke-miterlimit="10" stroke-linecap="round" stroke-linejoin="round"/>
<path d="M298.699 122.495C298.699 122.495 295.779 133.01 297.239 139.693C298.699 146.377 302.35 144.747 302.35 144.747" stroke="#4E5A7D" stroke-width="6" stroke-miterlimit="10" stroke-linecap="round" stroke-linejoin="round"/>
<path d="M313.271 124.217C322.687 122.176 329.317 115.848 328.079 110.084C326.841 104.319 318.204 101.301 308.788 103.342C299.372 105.383 292.742 111.711 293.98 117.476C295.218 123.24 303.854 126.259 313.271 124.217Z" stroke="#4E5A7D" stroke-width="6" stroke-miterlimit="10" stroke-linecap="round" stroke-linejoin="round"/>
<path d="M268.682 109.779L286.124 53.5366L308.84 103.34" stroke="#4E5A7D" stroke-width="6" stroke-miterlimit="10" stroke-linecap="round" stroke-linejoin="round"/>
</g>
<path d="M479.693 86.4669L484.317 82.5544" stroke="white" stroke-width="2" stroke-miterlimit="10" stroke-linecap="round" stroke-linejoin="round"/>
<path d="M473.69 84.8366L473.446 77.9897" stroke="white" stroke-width="2" stroke-miterlimit="10" stroke-linecap="round" stroke-linejoin="round"/>
<path d="M476.61 85.1628L479.936 77.0932" stroke="white" stroke-width="2" stroke-miterlimit="10" stroke-linecap="round" stroke-linejoin="round"/>
<path d="M274.118 216.966L278.742 212.972" stroke="white" stroke-width="2" stroke-miterlimit="10" stroke-linecap="round" stroke-linejoin="round"/>
<path d="M268.114 215.254L267.871 208.407" stroke="white" stroke-width="2" stroke-miterlimit="10" stroke-linecap="round" stroke-linejoin="round"/>
<path d="M270.954 215.58L274.361 207.592" stroke="white" stroke-width="2" stroke-miterlimit="10" stroke-linecap="round" stroke-linejoin="round"/>
</svg>
