<svg width="84" height="78" viewBox="0 0 84 78" fill="none" xmlns="http://www.w3.org/2000/svg">
<path d="M42.2936 21.9404L34.869 14.2127C27.6717 6.71239 15.7015 6.56087 8.6557 14.2127C1.8372 21.6373 -0.359876 35.1986 8.88298 50.275C18.2016 65.3515 42.2178 75.5792 42.2178 75.5792C42.2178 75.5792 66.3099 65.3515 75.5527 50.275C84.8713 35.1986 82.6742 21.6373 75.78 14.2127C68.7342 6.56087 56.764 6.71239 49.5667 14.2127L42.2936 21.9404Z" fill="white"/>
<path d="M42.2936 21.9404L34.869 14.2127C27.6717 6.71239 15.7015 6.56087 8.6557 14.2127C1.8372 21.6373 -0.359876 35.1986 8.88297 50.275C18.2016 65.3515 42.2178 75.5792 42.2178 75.5792C42.2178 75.5792 66.3099 65.3515 75.5527 50.275C84.8713 35.1986 82.6742 21.6373 75.78 14.2127C68.7342 6.56087 56.764 6.71239 49.5667 14.2127L42.2936 21.9404Z" stroke="#4E5A7D" stroke-width="3.5" stroke-miterlimit="10" stroke-linecap="round" stroke-linejoin="round"/>
<path d="M16.6106 46.4112H28.5808L34.4144 31.1074L42.2936 58.0026L47.8999 45.7293L52.2183 52.472L57.9761 31.1074L63.2794 44.5929H69.8706" stroke="#4E5A7D" stroke-width="3.5" stroke-miterlimit="10" stroke-linecap="round" stroke-linejoin="round"/>
<path d="M45.4758 9.66705L48.0517 4.59106" stroke="white" stroke-width="2" stroke-miterlimit="10" stroke-linecap="round" stroke-linejoin="round"/>
<path d="M39.7179 10.4247L36.9905 4.59106" stroke="white" stroke-width="2" stroke-miterlimit="10" stroke-linecap="round" stroke-linejoin="round"/>
<path d="M42.2938 9.6671V1.56067" stroke="white" stroke-width="2" stroke-miterlimit="10" stroke-linecap="round" stroke-linejoin="round"/>
</svg>
