<svg width="48" height="45" viewBox="0 0 48 45" fill="none" xmlns="http://www.w3.org/2000/svg">
<path d="M36.7668 12.9592C35.816 13.4621 34.7946 13.8005 33.7226 13.9531C34.8175 13.1722 35.657 11.9357 36.0524 10.4615C35.0291 11.1844 33.8944 11.7097 32.6863 11.9937C31.7196 10.7667 30.3425 10 28.8184 10C25.8914 10 23.5188 12.8267 23.5188 16.3112C23.5188 16.8058 23.5665 17.2886 23.6559 17.7488C19.2515 17.4862 15.3468 14.973 12.7318 11.1536C12.2768 12.086 12.0154 13.1698 12.0154 14.3282C12.0154 16.5171 12.9504 18.4493 14.3722 19.5804C13.5038 19.5473 12.6861 19.2633 11.9717 18.7912C11.9717 18.8184 11.9717 18.8433 11.9717 18.8705C11.9717 21.9291 13.7979 24.4801 16.2231 25.0587C15.779 25.203 15.3101 25.2799 14.8262 25.2799C14.4854 25.2799 14.1526 25.2397 13.8297 25.1675C14.5043 27.6748 16.4616 29.5004 18.7805 29.5513C16.9673 31.2445 14.6821 32.2538 12.1983 32.2538C11.771 32.2538 11.3488 32.2242 10.9335 32.165C13.2792 33.9552 16.0642 35 19.0577 35C28.8065 35 34.1359 25.3829 34.1359 17.0425C34.1359 16.7691 34.1309 16.497 34.121 16.226C35.1573 15.3351 36.0564 14.2241 36.7668 12.9592Z" fill="black"/>
</svg>
