<svg width="32" height="30" viewBox="0 0 32 30" fill="none" xmlns="http://www.w3.org/2000/svg">
<path d="M16.1001 2C8.69315 2 2.66675 7.832 2.66675 15C2.66675 22.168 8.69315 28 16.1001 28C23.507 28 29.5334 22.168 29.5334 15C29.5334 7.832 23.507 2 16.1001 2ZM12.655 6H19.5432C22.7723 6 25.4001 8.54202 25.4001 11.666V18.332C25.4001 21.457 22.7733 24 19.5452 24H12.657C9.42782 24 6.80008 21.458 6.80008 18.334V11.668C6.80008 8.54297 9.42683 6 12.655 6ZM12.655 8C10.5666 8 8.86675 9.64597 8.86675 11.668V18.334C8.86675 20.355 10.5676 22 12.657 22H19.5452C21.6336 22 23.3334 20.354 23.3334 18.332V11.666C23.3334 9.64502 21.6326 8 19.5432 8H12.655ZM20.9236 9.66602C21.3039 9.66602 21.6119 9.96403 21.6119 10.332C21.6119 10.7 21.3039 11 20.9236 11C20.5434 11 20.2334 10.7 20.2334 10.332C20.2334 9.96403 20.5434 9.66602 20.9236 9.66602ZM16.1001 10C18.949 10 21.2667 12.243 21.2667 15C21.2667 17.757 18.949 20 16.1001 20C13.2512 20 10.9334 17.757 10.9334 15C10.9334 12.243 13.2512 10 16.1001 10ZM16.1001 12C15.2779 12 14.4894 12.3161 13.908 12.8787C13.3267 13.4413 13.0001 14.2044 13.0001 15C13.0001 15.7956 13.3267 16.5587 13.908 17.1213C14.4894 17.6839 15.2779 18 16.1001 18C16.9223 18 17.7107 17.6839 18.2921 17.1213C18.8735 16.5587 19.2001 15.7956 19.2001 15C19.2001 14.2044 18.8735 13.4413 18.2921 12.8787C17.7107 12.3161 16.9223 12 16.1001 12Z" fill="black"/>
</svg>
