<svg width="321" height="313" viewBox="0 0 321 313" fill="none" xmlns="http://www.w3.org/2000/svg">
<path d="M127.931 82.7277C127.688 82.8581 127.596 83.1611 127.726 83.4045C127.857 83.648 128.16 83.7396 128.403 83.6092L127.931 82.7277ZM205 46.5001L205.099 46.9901L205 46.5001ZM130.498 82.4716C130.74 82.3384 130.829 82.0344 130.695 81.7925C130.562 81.5505 130.258 81.4623 130.016 81.5954L130.498 82.4716ZM138.252 76.8687C138.015 77.0097 137.937 77.3164 138.078 77.5539C138.219 77.7914 138.525 77.8696 138.763 77.7286L138.252 76.8687ZM142.845 75.2794C143.081 75.1364 143.156 74.829 143.013 74.5927C142.87 74.3565 142.563 74.2809 142.327 74.4239L142.845 75.2794ZM150.452 69.4791C150.216 69.6223 150.141 69.9299 150.284 70.1659C150.427 70.402 150.735 70.4772 150.971 70.3339L150.452 69.4791ZM155.041 67.8808C155.279 67.7392 155.356 67.4322 155.214 67.1952C155.073 66.9581 154.766 66.8806 154.529 67.0222L155.041 67.8808ZM162.772 62.2464C162.53 62.3809 162.444 62.6854 162.579 62.9266C162.713 63.1678 163.018 63.2542 163.259 63.1197L162.772 62.2464ZM167.426 60.852C167.67 60.7228 167.763 60.4202 167.634 60.1762C167.505 59.9321 167.202 59.8391 166.958 59.9684L167.426 60.852ZM175.501 55.7258C175.251 55.8415 175.141 56.1386 175.257 56.3893C175.373 56.6401 175.67 56.7495 175.92 56.6338L175.501 55.7258ZM180.257 54.7152C180.511 54.6076 180.63 54.3142 180.522 54.0599C180.415 53.8056 180.121 53.6867 179.867 53.7943L180.257 54.7152ZM188.778 50.3826C188.517 50.4721 188.377 50.7564 188.467 51.0177C188.556 51.2789 188.841 51.4182 189.102 51.3287L188.778 50.3826ZM193.615 49.8758C193.879 49.7961 194.029 49.5171 193.949 49.2527C193.87 48.9883 193.591 48.8387 193.326 48.9184L193.615 49.8758ZM202.56 46.5063C202.291 46.5661 202.121 46.8331 202.18 47.1027C202.24 47.3723 202.507 47.5424 202.777 47.4826L202.56 46.5063ZM207.657 46.5141C207.929 46.4677 208.112 46.2094 208.066 45.9371C208.02 45.6649 207.761 45.4819 207.489 45.5283L207.657 46.5141ZM217.967 44.2918C217.692 44.3117 217.484 44.5512 217.504 44.8266C217.524 45.102 217.764 45.3091 218.039 45.2892L217.967 44.2918ZM223.273 45.009C223.549 44.9991 223.765 44.7674 223.755 44.4914C223.745 44.2155 223.513 43.9998 223.237 44.0096L223.273 45.009ZM233.769 43.956C233.493 43.9497 233.264 44.1684 233.257 44.4445C233.251 44.7205 233.47 44.9494 233.746 44.9557L233.769 43.956ZM238.985 45.1388C239.261 45.1517 239.495 44.9385 239.508 44.6627C239.521 44.3868 239.308 44.1528 239.032 44.1399L238.985 45.1388ZM249.535 44.851C249.26 44.8269 249.018 45.0305 248.994 45.3056C248.97 45.5807 249.173 45.8231 249.448 45.8472L249.535 44.851ZM254.667 46.3498C254.942 46.3787 255.188 46.1794 255.217 45.9048C255.246 45.6302 255.047 45.3842 254.772 45.3553L254.667 46.3498ZM265.215 46.6204C264.941 46.583 264.689 46.7745 264.652 47.0481C264.614 47.3217 264.806 47.5738 265.08 47.6112L265.215 46.6204ZM270.284 48.36C270.557 48.4012 270.812 48.2133 270.853 47.9403C270.894 47.6672 270.706 47.4124 270.433 47.3712L270.284 48.36ZM280.812 49.0821C280.541 49.0336 280.281 49.2147 280.232 49.4865C280.184 49.7584 280.365 50.0181 280.637 50.0666L280.812 49.0821ZM285.801 51.0234C286.072 51.0755 286.334 50.8979 286.387 50.6267C286.439 50.3555 286.261 50.0934 285.99 50.0413L285.801 51.0234ZM296.269 52.1686C296 52.1083 295.733 52.2778 295.672 52.5473C295.612 52.8168 295.781 53.0841 296.051 53.1445L296.269 52.1686ZM128.403 83.6092C129.105 83.2333 129.803 82.854 130.498 82.4716L130.016 81.5954C129.324 81.9761 128.629 82.3536 127.931 82.7277L128.403 83.6092ZM138.763 77.7286C140.129 76.9179 141.488 76.1005 142.845 75.2794L142.327 74.4239C140.972 75.244 139.615 76.0599 138.252 76.8687L138.763 77.7286ZM150.971 70.3339C152.323 69.5131 153.679 68.6945 155.041 67.8808L154.529 67.0222C153.163 67.8375 151.805 68.6575 150.452 69.4791L150.971 70.3339ZM163.259 63.1197C164.634 62.3527 166.022 61.5959 167.426 60.852L166.958 59.9684C165.547 60.716 164.152 61.4762 162.772 62.2464L163.259 63.1197ZM175.92 56.6338C177.344 55.9766 178.789 55.3363 180.257 54.7152L179.867 53.7943C178.389 54.4197 176.935 55.0644 175.501 55.7258L175.92 56.6338ZM189.102 51.3287C190.58 50.8226 192.084 50.3376 193.615 49.8758L193.326 48.9184C191.783 49.3838 190.267 49.8726 188.778 50.3826L189.102 51.3287ZM202.777 47.4826C203.544 47.3125 204.318 47.1483 205.099 46.9901L204.901 46.01C204.113 46.1694 203.333 46.3349 202.56 46.5063L202.777 47.4826ZM205.099 46.9901C205.94 46.8199 206.793 46.6614 207.657 46.5141L207.489 45.5283C206.615 45.6773 205.752 45.8377 204.901 46.01L205.099 46.9901ZM218.039 45.2892C219.762 45.1644 221.508 45.0719 223.273 45.009L223.237 44.0096C221.461 44.073 219.702 44.1661 217.967 44.2918L218.039 45.2892ZM233.746 44.9557C235.489 44.9954 237.238 45.0573 238.985 45.1388L239.032 44.1399C237.277 44.058 235.521 43.9958 233.769 43.956L233.746 44.9557ZM249.448 45.8472C251.203 46.0005 252.945 46.169 254.667 46.3498L254.772 45.3553C253.044 45.1739 251.297 45.0048 249.535 44.851L249.448 45.8472ZM265.08 47.6112C266.856 47.8539 268.594 48.1047 270.284 48.36L270.433 47.3712C268.739 47.1152 266.997 46.8637 265.215 46.6204L265.08 47.6112ZM280.637 50.0666C282.469 50.3937 284.196 50.7151 285.801 51.0234L285.99 50.0413C284.381 49.7322 282.65 49.41 280.812 49.0821L280.637 50.0666ZM296.051 53.1445C296.876 53.3292 297.514 53.4763 297.945 53.5772C298.161 53.6276 298.325 53.6665 298.435 53.6927C298.49 53.7058 298.532 53.7158 298.559 53.7224C298.573 53.7258 298.583 53.7283 298.59 53.7299C298.594 53.7308 298.596 53.7314 298.598 53.7318C298.599 53.732 298.599 53.7321 298.6 53.7322C298.6 53.7323 298.6 53.7323 298.6 53.7323C298.6 53.7323 298.6 53.7323 298.6 53.7324L298.6 53.7324C298.6 53.7324 298.6 53.7324 298.718 53.2465C298.836 52.7606 298.836 52.7606 298.836 52.7606C298.836 52.7606 298.836 52.7606 298.836 52.7606C298.836 52.7606 298.836 52.7606 298.836 52.7606C298.836 52.7605 298.836 52.7605 298.836 52.7604C298.835 52.7603 298.834 52.7601 298.834 52.7599C298.832 52.7595 298.829 52.7588 298.825 52.7579C298.818 52.7562 298.807 52.7536 298.793 52.7502C298.765 52.7434 298.723 52.7333 298.667 52.72C298.556 52.6934 298.39 52.6542 298.173 52.6035C297.739 52.5019 297.098 52.3541 296.269 52.1686L296.051 53.1445Z" fill="#C7C7C7"/>
<path fill-rule="evenodd" clip-rule="evenodd" d="M278.327 48.2018C279.326 47.5713 280.66 47.5188 282.336 47.7486L282.322 40.2717C282.254 39.8427 282.464 39.7198 282.83 39.7612L284.513 40.2789C284.769 40.404 284.962 40.5871 285.047 40.8629L288.115 48.1531L297.539 49.8658L298.07 31.558C298.054 31.1131 298.252 30.9493 298.714 31.1245L301.361 32.0358L307.272 51.7089L315.676 53.2917C318.159 54.0368 319.82 55.2375 320.3 56.6648C320.564 57.4517 320.513 57.8204 320.009 58.4358C319.016 59.6386 316.933 60.0736 314.251 59.6768L305.971 57.536L292.257 72.8293L289.474 72.5286C288.984 72.4893 288.874 72.2569 289.075 71.8623L296.375 55.0652L287.119 52.6069L281.242 57.9009C281.051 58.1128 280.8 58.1991 280.511 58.2024L278.768 57.9557C278.42 57.8399 278.281 57.6369 278.524 57.2773L281.717 50.5161C280.096 50.0079 278.911 49.3932 278.275 48.3916C278.219 48.2985 278.238 48.2583 278.327 48.2018Z" fill="#C7C7C7"/>
</svg>
