<svg width="353" height="297" viewBox="0 0 353 297" fill="none" xmlns="http://www.w3.org/2000/svg">
<path d="M37.7504 23.2505C138.72 24.1601 221.595 41.2096 290.25 115.25C355.546 185.668 351.75 296.25 351.75 296.25" stroke="#C7C7C7" stroke-dasharray="5 10"/>
<path fill-rule="evenodd" clip-rule="evenodd" d="M43.3287 22.147C42.6413 23.107 41.4252 23.6579 39.7855 24.0762L42.6141 30.9974C42.8383 31.3694 42.6901 31.5623 42.335 31.6619L40.5816 31.8157C40.2968 31.7963 40.0495 31.6992 39.867 31.4757L34.2798 25.8771L24.9043 27.8387L31.3058 44.9991C31.4875 45.4055 31.3659 45.6318 30.8721 45.6433L28.0765 45.7958L15.194 29.7956L6.81197 31.4937C4.23142 31.7382 2.24014 31.2514 1.25849 30.1097C0.717867 29.48 0.625785 29.1194 0.861497 28.3593C1.32786 26.8714 3.09457 25.6839 5.72808 25.0419L14.2048 23.9077L21.1517 4.5763L23.8436 3.80686C24.3124 3.65879 24.5013 3.83291 24.464 4.27401L24.0256 22.5835L33.5257 21.3761L36.9767 14.2591C37.0744 13.9906 37.2741 13.8163 37.541 13.7042L39.2484 13.2766C39.6141 13.253 39.8197 13.3886 39.7293 13.8134L39.3177 21.279C41.0105 21.1395 42.3399 21.2628 43.3063 21.9512C43.3929 22.0165 43.3899 22.0611 43.3287 22.147Z" fill="#C7C7C7"/>
</svg>
