<svg width="418" height="312" viewBox="0 0 418 312" fill="none" xmlns="http://www.w3.org/2000/svg">
<path d="M261.858 246.199H134.131L138.908 225.737C141.385 215.122 154.476 207.397 169.808 207.397H226.182C241.514 207.397 254.605 215.181 257.082 225.737L261.858 246.199Z" fill="#E08484"/>
<path d="M261.858 246.199H134.131L138.908 225.737C141.385 215.122 154.476 207.397 169.808 207.397H226.182C241.514 207.397 254.605 215.181 257.082 225.737L261.858 246.199Z" stroke="#4E5A7D" stroke-width="3" stroke-miterlimit="10" stroke-linecap="round" stroke-linejoin="round"/>
<path d="M243.99 230.631H227.951C221.818 230.631 216.865 225.678 216.865 219.545V194.129H179.125V219.545C179.125 225.678 174.171 230.631 168.038 230.631H151.999C128.529 230.631 109.541 249.619 109.541 273.089V307.703H286.448V273.089C286.448 249.619 267.401 230.631 243.99 230.631Z" fill="#FBE3D5"/>
<path d="M197.287 205.805C208.099 205.805 216.865 200.657 216.865 194.306C216.865 187.955 208.099 182.807 197.287 182.807C186.475 182.807 177.709 187.955 177.709 194.306C177.709 200.657 186.475 205.805 197.287 205.805Z" fill="#D5B6A5"/>
<path d="M286.448 273.089V307.703H109.541V273.089C109.541 249.619 128.529 230.631 151.999 230.631H168.038C168.451 230.631 168.864 230.631 169.277 230.572C173.64 242.425 185.08 250.916 198.466 250.916C211.852 250.916 223.233 242.484 227.597 230.631C227.715 230.631 227.833 230.631 228.01 230.631H243.99C267.401 230.631 286.448 249.619 286.448 273.089Z" fill="#FCE38A"/>
<path d="M181.483 275.211C164.913 275.211 151.409 261.708 151.409 245.137V230.513H245.7V245.137C245.7 261.708 232.196 275.211 215.626 275.211H181.483Z" fill="#D87171"/>
<path d="M243.99 230.631H227.951C221.818 230.631 216.865 225.678 216.865 219.545V194.129H179.125V219.545C179.125 225.678 174.171 230.631 168.038 230.631H151.999C128.529 230.631 109.541 249.619 109.541 273.089V307.703H286.448V273.089C286.448 249.619 267.401 230.631 243.99 230.631Z" stroke="#4E5A7D" stroke-width="3" stroke-miterlimit="10" stroke-linecap="round" stroke-linejoin="round"/>
<path d="M238.978 52.191C238.329 43.2277 240.688 36.4463 244.875 34.9721C249.003 33.4978 253.838 37.5667 255.489 38.9819C271.116 52.073 261.504 95.887 258.851 107.15L238.978 52.191Z" fill="#BCAFAA"/>
<path d="M237.799 52.1909C237.15 43.2277 239.509 36.4462 243.696 34.972C244.521 34.6772 245.347 34.6182 246.172 34.6772" stroke="#4E5A7D" stroke-width="3" stroke-miterlimit="10" stroke-linecap="round" stroke-linejoin="round"/>
<path d="M247.352 34.6772C250.772 34.9721 254.133 37.8026 255.49 38.982C271.116 52.0731 261.504 95.887 258.851 107.15L238.978 52.25" stroke="#4E5A7D" stroke-width="3" stroke-miterlimit="10" stroke-linecap="round" stroke-linejoin="round"/>
<path d="M136.372 111.16V91.2874C136.372 68.7022 156.362 74.5402 178.889 74.5402L220.58 76.1323C233.671 76.1323 241.573 56.6136 249.003 66.1666C248.767 59.2082 247.469 50.3629 243.401 41.1048C241.16 35.9155 231.784 16.2788 210.201 7.2566C202.889 4.19021 196.815 3.48258 193.1 3.0698C178.889 1.47764 173.051 -1.05803 148.638 5.7234C133.188 9.96917 122.101 17.6941 121.925 21.0553C121.748 24.1217 129.237 23.3551 135.369 27.9547C145.335 35.3848 131.419 52.132 129.473 73.3608C128.647 82.442 129.414 95.1793 136.372 111.16Z" fill="#BCAFAA"/>
<path d="M246.172 48.6528C245.406 45.5864 243.873 42.2252 243.401 41.1048C241.16 35.9155 231.784 16.2788 210.201 7.25659C202.889 4.19021 196.815 3.48258 193.1 3.0698C178.889 1.47763 169.277 -0.0555505 144.864 6.72588C129.414 10.9716 120.686 14.5687 121.925 21.0553C122.691 25.1242 131.832 24.0038 137.139 31.6697C144.215 41.9303 131.419 52.132 129.473 73.4197C128.647 82.501 129.414 95.2382 136.372 111.219V91.3463C136.372 68.7612 156.363 74.5991 178.889 74.5991L220.58 76.1913C233.671 76.1913 241.573 56.6726 249.003 66.2255" stroke="#4E5A7D" stroke-width="3" stroke-miterlimit="10" stroke-linecap="round" stroke-linejoin="round"/>
<path d="M246.939 63.6309C243.991 60.4466 239.568 59.0903 235.322 59.9748C224.767 62.2157 211.911 63.513 197.995 63.513C183.488 63.513 170.102 62.0977 159.252 59.68C155.006 58.7365 150.525 60.0338 147.576 63.2181C140.677 70.5303 136.431 80.3781 136.431 91.2284V141.588C136.431 173.903 162.672 200.144 194.987 200.144H199.233C231.548 200.144 257.789 173.903 257.789 141.588V91.2284C257.73 80.614 253.602 70.9431 246.939 63.6309Z" fill="#FBE3D5"/>
<path d="M199.174 192.95H194.928C162.613 192.95 136.372 166.709 136.372 134.394V140.467C136.372 172.782 162.613 199.024 194.928 199.024H199.174C231.489 199.024 257.73 172.782 257.73 140.467V134.394C257.73 166.709 231.489 192.95 199.174 192.95Z" fill="#D5B6A5"/>
<path d="M201.179 144.654C201.179 144.654 207.135 142.826 209.907 143.711C211.912 135.042 205.779 127.141 205.779 127.141" stroke="#4E5A7D" stroke-width="3" stroke-miterlimit="10" stroke-linecap="round" stroke-linejoin="round"/>
<path d="M213.091 169.657C209.67 171.898 205.307 173.254 200.471 173.254C189.739 173.254 181.011 166.532 181.011 158.276" stroke="#4E5A7D" stroke-width="3" stroke-miterlimit="10" stroke-linecap="round" stroke-linejoin="round"/>
<path d="M178.889 114.757C182.211 114.757 184.903 111.378 184.903 107.209C184.903 103.04 182.211 99.661 178.889 99.661C175.567 99.661 172.874 103.04 172.874 107.209C172.874 111.378 175.567 114.757 178.889 114.757Z" fill="#4E5A7D"/>
<path d="M223.469 114.462C226.791 114.462 229.484 111.083 229.484 106.914C229.484 102.745 226.791 99.3661 223.469 99.3661C220.148 99.3661 217.455 102.745 217.455 106.914C217.455 111.083 220.148 114.462 223.469 114.462Z" fill="#4E5A7D"/>
<path d="M235.322 60.0338C224.767 62.2746 211.911 63.5719 197.995 63.5719C183.488 63.5719 170.102 62.1567 159.252 59.739C155.006 58.7955 150.525 60.0928 147.576 63.2771C140.677 70.5892 136.431 80.4371 136.431 91.2873V94.5896C156.304 96.0049 176.471 96.7715 196.403 96.7715C216.806 96.7715 237.386 96.0049 257.789 94.4717V91.2873C257.789 80.614 253.72 70.9431 246.998 63.6309C243.99 60.4466 239.568 59.0903 235.322 60.0338Z" fill="#D5B6A5"/>
<path d="M246.939 63.6309C243.991 60.4466 239.568 59.0903 235.322 59.9748C224.767 62.2157 211.911 63.513 197.995 63.513C183.488 63.513 170.102 62.0977 159.252 59.68C155.006 58.7365 150.525 60.0338 147.576 63.2181C140.677 70.5303 136.431 80.3781 136.431 91.2284V141.588C136.431 173.903 162.672 200.144 194.987 200.144H199.233C231.548 200.144 257.789 173.903 257.789 141.588V91.2284C257.73 80.614 253.602 70.9431 246.939 63.6309Z" stroke="#4E5A7D" stroke-width="3" stroke-miterlimit="10" stroke-linecap="round" stroke-linejoin="round"/>
<path d="M259.735 90.1669C217.513 92.6436 175.115 92.6436 132.893 90.1669C129.945 89.99 127.645 87.7492 127.645 84.9776V71.5327C127.645 68.5253 130.416 66.1665 133.66 66.3434C175.41 68.8201 217.278 68.8201 259.028 66.3434C262.271 66.1665 265.042 68.5253 265.042 71.5327V84.9776C265.042 87.7492 262.743 89.99 259.735 90.1669Z" fill="#84BDE1"/>
<path opacity="0.3" d="M259.028 66.4025C217.278 68.8792 175.41 68.8792 133.66 66.4025C130.416 66.2256 127.645 68.5844 127.645 71.5918V76.0735C127.645 73.066 130.416 70.7073 133.66 70.8842C175.41 73.3609 217.278 73.3609 259.028 70.8842C262.271 70.7073 265.042 73.066 265.042 76.0735V71.5328C265.042 68.5844 262.271 66.2256 259.028 66.4025Z" fill="#84BDE1"/>
<path d="M259.735 90.1669C217.513 92.6436 175.115 92.6436 132.893 90.1669C129.945 89.99 127.645 87.7492 127.645 84.9776V71.5327C127.645 68.5253 130.416 66.1665 133.66 66.3434C175.41 68.8201 217.278 68.8201 259.028 66.3434C262.271 66.1665 265.042 68.5253 265.042 71.5327V84.9776C265.042 87.7492 262.743 89.99 259.735 90.1669Z" stroke="#4E5A7D" stroke-width="3" stroke-miterlimit="10" stroke-linecap="round" stroke-linejoin="round"/>
<path d="M243.401 40.1023C243.401 40.1023 255.548 40.1023 257.671 63.1591" stroke="#4E5A7D" stroke-width="3" stroke-miterlimit="10" stroke-linecap="round" stroke-linejoin="round"/>
<path d="M175.41 11.5614C200.472 12.8587 223.882 25.3601 226.713 47.1197" stroke="#4E5A7D" stroke-width="3" stroke-miterlimit="10" stroke-linecap="round" stroke-linejoin="round"/>
<path d="M158.308 13.4484C161.552 12.4459 165.68 11.5024 169.925 11.5613" stroke="#4E5A7D" stroke-width="3" stroke-miterlimit="10" stroke-linecap="round" stroke-linejoin="round"/>
<path d="M177.473 25.0063C191.036 27.1882 208.609 29.3111 215.155 51.6603" stroke="#4E5A7D" stroke-width="3" stroke-miterlimit="10" stroke-linecap="round" stroke-linejoin="round"/>
<path d="M196.344 180.213C196.344 180.213 199.705 182.217 205.779 180.213" stroke="#4E5A7D" stroke-width="3" stroke-miterlimit="10" stroke-linecap="round" stroke-linejoin="round"/>
<path d="M169.159 149.254C175.282 149.254 180.245 144.29 180.245 138.168C180.245 132.045 175.282 127.082 169.159 127.082C163.036 127.082 158.073 132.045 158.073 138.168C158.073 144.29 163.036 149.254 169.159 149.254Z" fill="#F5CFC4"/>
<path d="M227.656 149.254C233.779 149.254 238.742 144.29 238.742 138.168C238.742 132.045 233.779 127.082 227.656 127.082C221.533 127.082 216.57 132.045 216.57 138.168C216.57 144.29 221.533 149.254 227.656 149.254Z" fill="#F5CFC4"/>
<path d="M134.721 125.961H135.9V94.9435H134.721C130.829 94.9435 127.645 98.1278 127.645 102.02V118.885C127.645 122.777 130.829 125.961 134.721 125.961Z" fill="#FEF0E3"/>
<path d="M134.721 125.961H135.9V94.9435H134.721C130.829 94.9435 127.645 98.1278 127.645 102.02V118.885C127.645 122.777 130.829 125.961 134.721 125.961Z" stroke="#4E5A7D" stroke-width="3" stroke-miterlimit="10" stroke-linecap="round" stroke-linejoin="round"/>
<path d="M258.91 125.961H257.73V94.9435H258.91C262.802 94.9435 265.986 98.1278 265.986 102.02V118.885C265.986 122.777 262.802 125.961 258.91 125.961Z" fill="#FEF0E3"/>
<path d="M258.91 125.961H257.73V94.9435H258.91C262.802 94.9435 265.986 98.1278 265.986 102.02V118.885C265.986 122.777 262.802 125.961 258.91 125.961Z" stroke="#4E5A7D" stroke-width="3" stroke-miterlimit="10" stroke-linecap="round" stroke-linejoin="round"/>
<path d="M215.626 270.494H181.483C167.508 270.494 156.127 259.113 156.127 245.137V221.55H240.983V245.137C240.983 259.172 229.661 270.494 215.626 270.494Z" fill="#FCE38A"/>
<path d="M240.983 221.55V245.137C240.983 259.113 229.602 270.494 215.626 270.494H181.483C167.508 270.494 156.127 259.113 156.127 245.137V221.55" stroke="#4E5A7D" stroke-width="3" stroke-miterlimit="10" stroke-linecap="round" stroke-linejoin="round"/>
<path d="M227.538 230.631C223.174 242.484 211.734 250.916 198.407 250.916C185.021 250.916 173.581 242.425 169.218 230.572C174.761 229.982 179.125 225.265 179.125 219.545V217.481H216.865V219.545C216.865 225.501 221.582 230.395 227.538 230.631Z" fill="#FBE3D5"/>
<path d="M223.528 229.687C219.577 239.948 209.729 246.788 198.407 246.788C186.967 246.788 177.061 239.771 173.169 229.334C171.989 229.982 170.633 230.395 169.218 230.572C173.581 242.425 185.021 250.916 198.407 250.916C211.793 250.916 223.174 242.484 227.538 230.631C226.123 230.572 224.767 230.218 223.528 229.687Z" fill="#EDD4C6"/>
<path d="M216.865 217.422V219.486C216.865 224.616 220.344 228.98 225.12 230.218C226.359 230.572 227.066 231.928 226.535 233.108C221.523 243.604 210.85 250.857 198.466 250.857C185.965 250.857 175.232 243.486 170.279 232.872C169.748 231.751 170.338 230.395 171.576 230.041C175.999 228.567 179.183 224.439 179.183 219.486V217.422" stroke="#4E5A7D" stroke-width="3" stroke-miterlimit="10" stroke-linecap="round" stroke-linejoin="round"/>
<path d="M168.097 226.798C171.282 240.597 183.606 250.916 198.407 250.916C213.209 250.916 225.533 240.597 228.717 226.798" stroke="#4E5A7D" stroke-width="3" stroke-miterlimit="10" stroke-linecap="round" stroke-linejoin="round"/>
<path d="M176.589 260.174C179.194 260.174 181.306 258.96 181.306 257.462C181.306 255.964 179.194 254.749 176.589 254.749C173.984 254.749 171.871 255.964 171.871 257.462C171.871 258.96 173.984 260.174 176.589 260.174Z" fill="#4E5A7D"/>
<path d="M176.589 257.462V288.185" stroke="#4E5A7D" stroke-width="3" stroke-miterlimit="10" stroke-linecap="round" stroke-linejoin="round"/>
<path d="M219.342 260.174C221.947 260.174 224.059 258.96 224.059 257.462C224.059 255.964 221.947 254.749 219.342 254.749C216.736 254.749 214.624 255.964 214.624 257.462C214.624 258.96 216.736 260.174 219.342 260.174Z" fill="#4E5A7D"/>
<path d="M219.341 257.462V279.929" stroke="#4E5A7D" stroke-width="3" stroke-miterlimit="10" stroke-linecap="round" stroke-linejoin="round"/>
<path d="M178.299 296.322H174.761C172.52 296.322 170.869 294.259 171.4 292.077L172.933 285.236H180.127L181.66 292.077C182.191 294.259 180.54 296.322 178.299 296.322Z" fill="#FEF0E3"/>
<path d="M178.299 296.322H174.761C172.52 296.322 170.869 294.259 171.4 292.077L172.933 285.236H180.127L181.66 292.077C182.191 294.259 180.54 296.322 178.299 296.322Z" stroke="#4E5A7D" stroke-width="3" stroke-miterlimit="10" stroke-linecap="round" stroke-linejoin="round"/>
<path d="M221.11 290.779H217.572C215.331 290.779 213.68 288.715 214.211 286.533L215.744 279.693H222.938L224.471 286.533C225.002 288.715 223.351 290.779 221.11 290.779Z" fill="#FEF0E3"/>
<path d="M221.11 290.779H217.572C215.331 290.779 213.68 288.715 214.211 286.533L215.744 279.693H222.938L224.471 286.533C225.002 288.715 223.351 290.779 221.11 290.779Z" stroke="#4E5A7D" stroke-width="3" stroke-miterlimit="10" stroke-linecap="round" stroke-linejoin="round"/>
<path opacity="0.58" d="M193.277 228.213C193.277 228.213 195.164 228.39 197.287 230.572C197.287 230.572 199.764 228.213 201.887 228.213" stroke="#D5B6A5" stroke-width="3" stroke-miterlimit="10" stroke-linecap="round" stroke-linejoin="round"/>
<path d="M200.471 49.1835C200.471 49.1835 199.174 41.7534 186.083 37.6846" stroke="#4E5A7D" stroke-width="3" stroke-miterlimit="10" stroke-linecap="round" stroke-linejoin="round"/>
<path d="M145.571 285.236V307.703" stroke="#4E5A7D" stroke-width="3" stroke-miterlimit="10" stroke-linecap="round" stroke-linejoin="round"/>
<path d="M249.062 285.236V307.703" stroke="#4E5A7D" stroke-width="3" stroke-miterlimit="10" stroke-linecap="round" stroke-linejoin="round"/>
<path d="M346.009 310H375.076" stroke="#4E5A7D" stroke-width="3" stroke-miterlimit="10" stroke-linecap="round" stroke-linejoin="round"/>
<path d="M1.91296 310H313.013" stroke="#4E5A7D" stroke-width="3" stroke-miterlimit="10" stroke-linecap="round" stroke-linejoin="round"/>
<path d="M399.43 310H415.928" stroke="#4E5A7D" stroke-width="3" stroke-miterlimit="10" stroke-linecap="round" stroke-linejoin="round"/>
</svg>
