<svg width="40" height="40" viewBox="0 0 40 40" fill="none" xmlns="http://www.w3.org/2000/svg">
<mask id="path-1-inside-1_47_1376" fill="white">
<path d="M34.1129 9.68363L34.1316 9.66545C35.2273 8.56895 35.2626 6.82102 34.2103 5.76845C33.964 5.52272 33.6713 5.32829 33.3493 5.1964C33.0273 5.06451 32.6823 4.99777 32.3343 5.00006C31.9581 5.00067 31.5858 5.07585 31.2389 5.22124C30.8919 5.36664 30.5773 5.57936 30.313 5.84712L27.9079 8.41724L19.3055 5.84192L17.5225 7.62548C17.4121 7.73576 17.3244 7.86674 17.2647 8.01091C17.2049 8.15509 17.1741 8.30964 17.1741 8.46571C17.1741 8.62179 17.2049 8.77634 17.2647 8.92051C17.3244 9.06469 17.4121 9.19566 17.5225 9.30595L17.6006 9.38407L23.8142 12.8036L22.9051 13.7902C20.8922 12.4887 18.5464 11.7958 16.1494 11.7947C15.6874 11.7954 15.2258 11.8215 14.7666 11.8729L14.7235 11.8251C14.7032 11.8433 14.6804 11.8638 14.658 11.8846C9.4939 12.4971 5.2434 16.258 4.06039 21.451C3.69814 23.04 3.65248 24.6847 3.926 26.2913C4.19953 27.898 4.78689 29.4349 5.65453 30.8145C6.52217 32.1941 7.6531 33.3892 8.98272 34.3316C10.3123 35.274 11.8146 35.9453 13.4037 36.307C14.3113 36.5142 15.2394 36.619 16.1704 36.6195C21.9936 36.6195 26.965 32.6495 28.2597 26.9651C28.4885 25.9648 28.5931 24.9401 28.5711 23.9142C28.6431 23.632 28.6251 23.3343 28.5196 23.0629C28.3415 21.1215 27.7061 19.2499 26.6654 17.6013C26.5371 17.3974 26.402 17.1989 26.2631 17.0049L27.186 16.1541L30.6334 22.4176L30.7124 22.4963C30.9351 22.7186 31.2369 22.8434 31.5516 22.8434C31.8662 22.8433 32.168 22.7184 32.3907 22.496L34.1747 20.7123L31.5823 12.0512L34.1129 9.68363ZM10.161 32.7801L9.95679 33.1158C8.29385 31.9553 6.98899 30.3525 6.18995 28.4888C5.39091 26.6251 5.1296 24.5749 5.43561 22.5703C6.13045 22.7576 6.83211 23.0343 7.10145 23.2268C7.09136 23.2985 7.08015 23.3712 7.06902 23.4436C6.96482 24.1198 6.80743 25.1413 7.63998 25.7473C8.36859 26.2772 9.03544 25.7816 9.33959 25.5254C9.46169 25.6239 9.59468 25.7218 9.73161 25.8229C9.94515 25.9803 10.3218 26.2582 10.4571 26.4273C10.4143 26.5767 10.3511 26.7533 10.2896 26.9253C10.0477 27.6007 9.7976 28.2987 10.2631 28.7891C10.4236 28.9865 10.9034 29.8939 11.026 30.2207C11.0234 30.3295 11.0315 30.4534 11.0419 30.6147C11.063 30.8453 11.0665 31.0772 11.0523 31.3083C11.0515 31.3081 10.1064 32.4983 10.161 32.7801ZM16.1704 35.0607C14.3623 35.0592 12.5829 34.609 10.9917 33.7504C11.7523 33.1072 12.4105 32.0741 12.4204 32.0574C12.6511 31.6678 12.6379 31.1503 12.5968 30.5142C12.5901 30.4077 12.5823 30.3163 12.5838 30.2575C12.5827 30.2867 12.5784 30.3157 12.5711 30.344C12.6961 29.791 11.9443 28.5179 11.5827 27.9755C11.6201 27.8321 11.6996 27.6102 11.7565 27.4507C11.8553 27.1913 11.9389 26.9262 12.0066 26.6569C12.2214 25.7225 11.3536 25.0825 10.6564 24.5684C10.4824 24.448 10.3167 24.316 10.1605 24.1733C9.84665 23.8424 9.31807 23.587 8.54679 24.1611C8.56059 23.9962 8.58939 23.8093 8.60913 23.6805C8.63511 23.5127 8.66034 23.3452 8.67645 23.1838C8.76603 22.2796 7.78983 21.5619 5.78006 21.0483C6.3074 19.2832 7.27844 17.6827 8.60045 16.3997C9.92247 15.1167 11.5513 14.1941 13.3314 13.7198C13.1536 14.156 13.038 14.615 12.988 15.0833C12.9545 15.386 12.9111 15.66 12.8729 15.9013C12.7205 16.8648 12.5475 17.9568 13.9312 18.573C14.4691 18.8176 15.0458 18.9655 15.6351 19.0099C15.8049 19.024 15.9737 19.0484 16.1405 19.0829C16.1875 19.3173 16.1577 19.7986 16.1454 19.9963C16.1283 20.2724 16.1099 20.5701 16.1982 20.8197C16.3122 21.4499 16.8629 23.7527 19.0044 25.238C18.6861 25.4346 18.3384 25.5789 17.9745 25.6656C17.7942 25.7002 17.6095 25.7233 17.4308 25.7456C16.6996 25.8374 15.6981 25.9623 15.2792 27.1172C15.0929 27.6277 15.2137 27.9994 15.348 28.2212C15.6815 28.7727 16.3304 28.8597 16.8042 28.9231C16.8806 28.9332 16.9879 28.9478 17.0524 28.9605C17.3456 29.1753 18.261 29.7837 19.21 29.7837C19.6711 29.7908 20.1181 29.6247 20.4628 29.3184C20.6189 29.186 21.3593 29.1946 21.7157 29.1992C22.47 29.2081 23.1823 29.2169 23.6369 28.7573C23.7475 28.6452 23.8338 28.5114 23.8905 28.3645C23.9472 28.2175 23.973 28.0604 23.9663 27.903C23.9502 27.252 25.1962 26.5519 26.1977 25.9893C26.4393 25.8537 26.6863 25.7142 26.9263 25.5695C26.8814 25.9197 26.8193 26.2692 26.7401 26.6182C26.2047 29.0196 24.8648 31.1659 22.9425 32.7014C21.0201 34.2369 18.6307 35.0693 16.1704 35.0607ZM25.3461 18.4305C26.3266 19.983 26.8946 21.7602 26.9964 23.5936C26.7704 23.8798 25.9472 24.3427 25.4342 24.6308C24.0935 25.3841 22.5859 26.2312 22.4222 27.6315C22.2258 27.6474 21.9429 27.6435 21.7349 27.6412C20.9366 27.6324 20.0341 27.6206 19.4341 28.1482C19.1746 28.376 18.3849 28.0253 17.934 27.6739C17.6815 27.4767 17.3796 27.4287 17.0593 27.3853C17.2458 27.3437 17.4345 27.3129 17.6246 27.2931C17.8183 27.2686 18.0381 27.2413 18.2683 27.1972C18.967 27.0631 20.788 26.2987 20.9397 25.2884C20.971 25.0845 20.9364 24.8759 20.841 24.693C20.7455 24.5101 20.5942 24.3624 20.409 24.2715C18.0893 23.0459 17.7334 20.5685 17.7196 20.4669L17.6924 20.2479C17.6952 20.1965 17.6986 20.1409 17.7014 20.0931C17.7477 19.3497 17.8334 17.9656 16.7414 17.6313C16.4337 17.5426 16.1179 17.4853 15.7987 17.4601C15.3725 17.4332 14.9548 17.3282 14.5666 17.1503C14.378 17.0663 14.3388 17.011 14.3388 17.011C14.2912 16.9136 14.3617 16.4699 14.4131 16.146C14.4542 15.8873 14.5004 15.5943 14.538 15.255C14.6391 14.3432 15.0064 13.7707 15.3568 13.3837C15.6191 13.365 15.8831 13.3532 16.1499 13.3532C18.1552 13.3545 20.1214 13.9087 21.8322 14.9549L21.7543 15.0394C21.6191 15.1757 21.4943 15.3219 21.381 15.4768L18.5943 14.7554L17.3724 15.9777C17.2713 16.0786 17.1912 16.1985 17.1365 16.3304C17.0818 16.4623 17.0536 16.6036 17.0536 16.7464C17.0536 16.8892 17.0817 17.0306 17.1363 17.1625C17.191 17.2944 17.2711 17.4143 17.3721 17.5152L17.4596 17.603L20.6695 19.2321L20.7849 19.3474L22.4139 22.5578L22.5017 22.6454C22.6026 22.7464 22.7224 22.8265 22.8543 22.8812C22.9861 22.9359 23.1275 22.964 23.2702 22.9641C23.413 22.9641 23.5544 22.9361 23.6863 22.8815C23.8182 22.8269 23.938 22.7468 24.039 22.6459L25.2616 21.4237L24.5255 18.5798C24.6715 18.4717 24.8095 18.3533 24.9385 18.2254L25.1053 18.0719C25.1869 18.1899 25.2689 18.3079 25.3461 18.4305ZM32.4146 20.2672L31.6498 21.032L27.5923 13.6591L23.8717 17.0893L23.8496 17.1103C23.6841 17.2769 23.4925 17.4153 23.2823 17.52L22.7139 17.8005L23.5298 20.9512L23.4083 21.0728L22.0624 18.4208L21.5964 17.9543L18.9447 16.609L19.066 16.4876L22.1713 17.2916L22.4487 16.7139C22.5545 16.4971 22.6961 16.2995 22.8675 16.1297L26.3083 12.3974L18.9852 8.36714L19.75 7.6021L28.3864 10.1873L31.4231 6.94155C31.6644 6.69863 31.9919 6.56099 32.3343 6.55865C32.4775 6.55693 32.6196 6.5836 32.7524 6.6371C32.8852 6.6906 33.0061 6.76988 33.1081 6.87037C33.5505 7.31272 33.518 8.06633 33.0375 8.55521L29.8122 11.5721L32.4146 20.2672Z"/>
</mask>
<path d="M34.1129 9.68363L34.1316 9.66545C35.2273 8.56895 35.2626 6.82102 34.2103 5.76845C33.964 5.52272 33.6713 5.32829 33.3493 5.1964C33.0273 5.06451 32.6823 4.99777 32.3343 5.00006C31.9581 5.00067 31.5858 5.07585 31.2389 5.22124C30.8919 5.36664 30.5773 5.57936 30.313 5.84712L27.9079 8.41724L19.3055 5.84192L17.5225 7.62548C17.4121 7.73576 17.3244 7.86674 17.2647 8.01091C17.2049 8.15509 17.1741 8.30964 17.1741 8.46571C17.1741 8.62179 17.2049 8.77634 17.2647 8.92051C17.3244 9.06469 17.4121 9.19566 17.5225 9.30595L17.6006 9.38407L23.8142 12.8036L22.9051 13.7902C20.8922 12.4887 18.5464 11.7958 16.1494 11.7947C15.6874 11.7954 15.2258 11.8215 14.7666 11.8729L14.7235 11.8251C14.7032 11.8433 14.6804 11.8638 14.658 11.8846C9.4939 12.4971 5.2434 16.258 4.06039 21.451C3.69814 23.04 3.65248 24.6847 3.926 26.2913C4.19953 27.898 4.78689 29.4349 5.65453 30.8145C6.52217 32.1941 7.6531 33.3892 8.98272 34.3316C10.3123 35.274 11.8146 35.9453 13.4037 36.307C14.3113 36.5142 15.2394 36.619 16.1704 36.6195C21.9936 36.6195 26.965 32.6495 28.2597 26.9651C28.4885 25.9648 28.5931 24.9401 28.5711 23.9142C28.6431 23.632 28.6251 23.3343 28.5196 23.0629C28.3415 21.1215 27.7061 19.2499 26.6654 17.6013C26.5371 17.3974 26.402 17.1989 26.2631 17.0049L27.186 16.1541L30.6334 22.4176L30.7124 22.4963C30.9351 22.7186 31.2369 22.8434 31.5516 22.8434C31.8662 22.8433 32.168 22.7184 32.3907 22.496L34.1747 20.7123L31.5823 12.0512L34.1129 9.68363ZM10.161 32.7801L9.95679 33.1158C8.29385 31.9553 6.98899 30.3525 6.18995 28.4888C5.39091 26.6251 5.1296 24.5749 5.43561 22.5703C6.13045 22.7576 6.83211 23.0343 7.10145 23.2268C7.09136 23.2985 7.08015 23.3712 7.06902 23.4436C6.96482 24.1198 6.80743 25.1413 7.63998 25.7473C8.36859 26.2772 9.03544 25.7816 9.33959 25.5254C9.46169 25.6239 9.59468 25.7218 9.73161 25.8229C9.94515 25.9803 10.3218 26.2582 10.4571 26.4273C10.4143 26.5767 10.3511 26.7533 10.2896 26.9253C10.0477 27.6007 9.7976 28.2987 10.2631 28.7891C10.4236 28.9865 10.9034 29.8939 11.026 30.2207C11.0234 30.3295 11.0315 30.4534 11.0419 30.6147C11.063 30.8453 11.0665 31.0772 11.0523 31.3083C11.0515 31.3081 10.1064 32.4983 10.161 32.7801ZM16.1704 35.0607C14.3623 35.0592 12.5829 34.609 10.9917 33.7504C11.7523 33.1072 12.4105 32.0741 12.4204 32.0574C12.6511 31.6678 12.6379 31.1503 12.5968 30.5142C12.5901 30.4077 12.5823 30.3163 12.5838 30.2575C12.5827 30.2867 12.5784 30.3157 12.5711 30.344C12.6961 29.791 11.9443 28.5179 11.5827 27.9755C11.6201 27.8321 11.6996 27.6102 11.7565 27.4507C11.8553 27.1913 11.9389 26.9262 12.0066 26.6569C12.2214 25.7225 11.3536 25.0825 10.6564 24.5684C10.4824 24.448 10.3167 24.316 10.1605 24.1733C9.84665 23.8424 9.31807 23.587 8.54679 24.1611C8.56059 23.9962 8.58939 23.8093 8.60913 23.6805C8.63511 23.5127 8.66034 23.3452 8.67645 23.1838C8.76603 22.2796 7.78983 21.5619 5.78006 21.0483C6.3074 19.2832 7.27844 17.6827 8.60045 16.3997C9.92247 15.1167 11.5513 14.1941 13.3314 13.7198C13.1536 14.156 13.038 14.615 12.988 15.0833C12.9545 15.386 12.9111 15.66 12.8729 15.9013C12.7205 16.8648 12.5475 17.9568 13.9312 18.573C14.4691 18.8176 15.0458 18.9655 15.6351 19.0099C15.8049 19.024 15.9737 19.0484 16.1405 19.0829C16.1875 19.3173 16.1577 19.7986 16.1454 19.9963C16.1283 20.2724 16.1099 20.5701 16.1982 20.8197C16.3122 21.4499 16.8629 23.7527 19.0044 25.238C18.6861 25.4346 18.3384 25.5789 17.9745 25.6656C17.7942 25.7002 17.6095 25.7233 17.4308 25.7456C16.6996 25.8374 15.6981 25.9623 15.2792 27.1172C15.0929 27.6277 15.2137 27.9994 15.348 28.2212C15.6815 28.7727 16.3304 28.8597 16.8042 28.9231C16.8806 28.9332 16.9879 28.9478 17.0524 28.9605C17.3456 29.1753 18.261 29.7837 19.21 29.7837C19.6711 29.7908 20.1181 29.6247 20.4628 29.3184C20.6189 29.186 21.3593 29.1946 21.7157 29.1992C22.47 29.2081 23.1823 29.2169 23.6369 28.7573C23.7475 28.6452 23.8338 28.5114 23.8905 28.3645C23.9472 28.2175 23.973 28.0604 23.9663 27.903C23.9502 27.252 25.1962 26.5519 26.1977 25.9893C26.4393 25.8537 26.6863 25.7142 26.9263 25.5695C26.8814 25.9197 26.8193 26.2692 26.7401 26.6182C26.2047 29.0196 24.8648 31.1659 22.9425 32.7014C21.0201 34.2369 18.6307 35.0693 16.1704 35.0607ZM25.3461 18.4305C26.3266 19.983 26.8946 21.7602 26.9964 23.5936C26.7704 23.8798 25.9472 24.3427 25.4342 24.6308C24.0935 25.3841 22.5859 26.2312 22.4222 27.6315C22.2258 27.6474 21.9429 27.6435 21.7349 27.6412C20.9366 27.6324 20.0341 27.6206 19.4341 28.1482C19.1746 28.376 18.3849 28.0253 17.934 27.6739C17.6815 27.4767 17.3796 27.4287 17.0593 27.3853C17.2458 27.3437 17.4345 27.3129 17.6246 27.2931C17.8183 27.2686 18.0381 27.2413 18.2683 27.1972C18.967 27.0631 20.788 26.2987 20.9397 25.2884C20.971 25.0845 20.9364 24.8759 20.841 24.693C20.7455 24.5101 20.5942 24.3624 20.409 24.2715C18.0893 23.0459 17.7334 20.5685 17.7196 20.4669L17.6924 20.2479C17.6952 20.1965 17.6986 20.1409 17.7014 20.0931C17.7477 19.3497 17.8334 17.9656 16.7414 17.6313C16.4337 17.5426 16.1179 17.4853 15.7987 17.4601C15.3725 17.4332 14.9548 17.3282 14.5666 17.1503C14.378 17.0663 14.3388 17.011 14.3388 17.011C14.2912 16.9136 14.3617 16.4699 14.4131 16.146C14.4542 15.8873 14.5004 15.5943 14.538 15.255C14.6391 14.3432 15.0064 13.7707 15.3568 13.3837C15.6191 13.365 15.8831 13.3532 16.1499 13.3532C18.1552 13.3545 20.1214 13.9087 21.8322 14.9549L21.7543 15.0394C21.6191 15.1757 21.4943 15.3219 21.381 15.4768L18.5943 14.7554L17.3724 15.9777C17.2713 16.0786 17.1912 16.1985 17.1365 16.3304C17.0818 16.4623 17.0536 16.6036 17.0536 16.7464C17.0536 16.8892 17.0817 17.0306 17.1363 17.1625C17.191 17.2944 17.2711 17.4143 17.3721 17.5152L17.4596 17.603L20.6695 19.2321L20.7849 19.3474L22.4139 22.5578L22.5017 22.6454C22.6026 22.7464 22.7224 22.8265 22.8543 22.8812C22.9861 22.9359 23.1275 22.964 23.2702 22.9641C23.413 22.9641 23.5544 22.9361 23.6863 22.8815C23.8182 22.8269 23.938 22.7468 24.039 22.6459L25.2616 21.4237L24.5255 18.5798C24.6715 18.4717 24.8095 18.3533 24.9385 18.2254L25.1053 18.0719C25.1869 18.1899 25.2689 18.3079 25.3461 18.4305ZM32.4146 20.2672L31.6498 21.032L27.5923 13.6591L23.8717 17.0893L23.8496 17.1103C23.6841 17.2769 23.4925 17.4153 23.2823 17.52L22.7139 17.8005L23.5298 20.9512L23.4083 21.0728L22.0624 18.4208L21.5964 17.9543L18.9447 16.609L19.066 16.4876L22.1713 17.2916L22.4487 16.7139C22.5545 16.4971 22.6961 16.2995 22.8675 16.1297L26.3083 12.3974L18.9852 8.36714L19.75 7.6021L28.3864 10.1873L31.4231 6.94155C31.6644 6.69863 31.9919 6.56099 32.3343 6.55865C32.4775 6.55693 32.6196 6.5836 32.7524 6.6371C32.8852 6.6906 33.0061 6.76988 33.1081 6.87037C33.5505 7.31272 33.518 8.06633 33.0375 8.55521L29.8122 11.5721L32.4146 20.2672Z" fill="white" stroke="white" stroke-width="8" mask="url(#path-1-inside-1_47_1376)"/>
</svg>
