<svg width="103" height="95" viewBox="0 0 103 95" fill="none" xmlns="http://www.w3.org/2000/svg">
<path d="M21.3064 49.8603C21.3064 49.8603 41.3831 10.6918 70.1723 2.9642C74.8695 1.67627 84.7184 0.236806 92.2945 5.99465C100.477 12.2828 103.507 25.4652 98.3554 35.0111C90.7793 48.9512 68.4298 49.4815 61.9901 42.2084C59.6415 39.5568 59.7173 36.2233 59.793 35.3899C59.9445 27.6623 68.9601 20.0862 76.8393 21.2226C81.3849 21.9045 84.2638 25.3137 84.5669 25.6168C90.3247 32.6626 87.9761 46.3753 79.0363 60.0881" stroke="#4E5A7D" stroke-width="3.5" stroke-miterlimit="10" stroke-linecap="round" stroke-linejoin="round"/>
<path d="M26.0794 51.6028L16.3062 47.0571C14.488 46.2238 12.0636 47.6632 10.8514 50.2391C9.63925 52.815 10.1696 55.6181 11.9121 56.4515L12.5182 56.7546L4.1087 71.9068C1.60858 76.3767 2.29043 81.5284 5.54816 83.0437C8.80588 84.5589 13.2 81.68 14.9425 76.907L21.0792 60.6941L21.6853 60.9972C23.5035 61.8306 25.9279 60.3911 27.1401 57.8152C28.428 55.2393 27.8977 52.5119 26.0794 51.6028Z" fill="white"/>
<path d="M26.0794 51.6028L16.3062 47.0571C14.488 46.2238 12.0636 47.6632 10.8514 50.2391C9.63925 52.815 10.1696 55.6181 11.9121 56.4515L12.5182 56.7546L4.1087 71.9068C1.60858 76.3767 2.29043 81.5284 5.54816 83.0437C8.80588 84.5589 13.2 81.68 14.9425 76.907L21.0792 60.6941L21.6853 60.9972C23.5035 61.8306 25.9279 60.3911 27.1401 57.8152C28.428 55.2393 27.8977 52.5119 26.0794 51.6028Z" stroke="#4E5A7D" stroke-width="3.5" stroke-miterlimit="10" stroke-linecap="round" stroke-linejoin="round"/>
<path d="M84.6427 58.7244L74.3392 55.5424C72.4452 54.9363 70.2481 56.6788 69.4148 59.4062C68.5814 62.1336 69.4148 64.861 71.3846 65.3914L71.9907 65.6186L65.7782 81.7557C63.96 86.5287 65.3237 91.5289 68.7329 92.5896C72.1422 93.6502 76.0818 90.241 77.2182 85.2407L81.082 68.346L81.6881 68.5733C83.5821 69.1794 85.7792 67.4369 86.6125 64.7095C87.4459 61.9821 86.5368 59.3305 84.6427 58.7244Z" fill="white"/>
<path d="M84.6427 58.7244L74.3392 55.5424C72.4452 54.9363 70.2481 56.6788 69.4148 59.4062C68.5814 62.1336 69.4148 64.861 71.3846 65.3914L71.9907 65.6186L65.7782 81.7557C63.96 86.5287 65.3237 91.5289 68.7329 92.5896C72.1422 93.6502 76.0818 90.241 77.2182 85.2407L81.082 68.346L81.6881 68.5733C83.5821 69.1794 85.7792 67.4369 86.6125 64.7095C87.4459 61.9821 86.5368 59.3305 84.6427 58.7244Z" stroke="#4E5A7D" stroke-width="3.5" stroke-miterlimit="10" stroke-linecap="round" stroke-linejoin="round"/>
<path d="M91.84 63.2701H96.4614" stroke="white" stroke-width="2" stroke-miterlimit="10" stroke-linecap="round" stroke-linejoin="round"/>
<path d="M88.7338 58.5729L91.84 54.3303" stroke="white" stroke-width="2" stroke-miterlimit="10" stroke-linecap="round" stroke-linejoin="round"/>
<path d="M90.9308 60.5427L95.628 57.588" stroke="white" stroke-width="2" stroke-miterlimit="10" stroke-linecap="round" stroke-linejoin="round"/>
<path d="M32.6708 54.3303H38.0498" stroke="white" stroke-width="2" stroke-miterlimit="10" stroke-linecap="round" stroke-linejoin="round"/>
<path d="M29.0342 48.8755L32.6707 43.8753" stroke="white" stroke-width="2" stroke-miterlimit="10" stroke-linecap="round" stroke-linejoin="round"/>
<path d="M31.5343 51.1483L37.0649 47.6633" stroke="white" stroke-width="2" stroke-miterlimit="10" stroke-linecap="round" stroke-linejoin="round"/>
<path d="M75.4254 6.82489C75.4254 6.82489 82.3797 4.1368 88.7807 9.26291" stroke="white" stroke-width="2" stroke-miterlimit="10" stroke-linecap="round" stroke-linejoin="round"/>
</svg>
