<svg width="29" height="19" viewBox="0 0 29 19" fill="none" xmlns="http://www.w3.org/2000/svg">
<path fill-rule="evenodd" clip-rule="evenodd" d="M0.258161 0.590372C0.469541 0.349243 0.787955 0.187436 1.14342 0.140512C1.49889 0.093589 1.86233 0.165389 2.15386 0.340132L28.4076 16.0738C28.5575 16.1585 28.6855 16.2672 28.7838 16.3936C28.8821 16.5199 28.9488 16.6613 28.9799 16.8093C29.011 16.9573 29.006 17.109 28.965 17.2554C28.9241 17.4018 28.8481 17.5399 28.7415 17.6616C28.635 17.7833 28.5 17.886 28.3446 17.9637C28.1893 18.0415 28.0166 18.0927 27.8369 18.1142C27.6572 18.1358 27.4742 18.1273 27.2985 18.0893C27.1228 18.0513 26.9582 17.9845 26.8143 17.8929L22.744 15.4534C20.5423 16.8934 17.7287 18.1072 14.4841 18.1072C10.8973 18.1072 7.83915 16.6207 5.55236 14.9934C3.2529 13.3601 1.59257 11.4796 0.777804 10.4651C0.456218 10.0665 0.284584 9.59803 0.284584 9.11876C0.284584 8.6395 0.456218 8.17099 0.777804 7.77241C1.41695 6.97374 2.57935 5.64462 4.16001 4.3185L0.560532 2.15924C0.26917 1.98431 0.0736555 1.72079 0.016957 1.4266C-0.0397415 1.13242 0.0470157 0.831641 0.258161 0.590372ZM6.38886 5.65212C5.1363 6.67519 4.01389 7.80193 3.03925 9.01462C3.01377 9.04445 2.99988 9.07999 2.99941 9.11652C2.99941 9.14798 3.01028 9.18395 3.03925 9.21841C3.78521 10.1489 5.28801 11.8407 7.32313 13.2897C9.36911 14.7477 11.817 15.8595 14.4841 15.8595C16.6477 15.8595 18.6665 15.1283 20.4409 14.0749L16.4087 11.6564C15.7974 11.9742 15.0853 12.1335 14.3637 12.1139C13.6422 12.0942 12.9442 11.8966 12.3594 11.5463C11.7746 11.196 11.3297 10.709 11.0817 10.1479C10.8337 9.58679 10.7941 8.97716 10.9679 8.39726L6.38705 5.65212H6.38886ZM14.4841 2.37352C13.5498 2.37352 12.6427 2.50838 11.77 2.74963C11.5995 2.80037 11.4186 2.82238 11.2377 2.81437C11.0568 2.80636 10.8797 2.76849 10.7168 2.70298C10.5539 2.63747 10.4085 2.54566 10.2891 2.43294C10.1697 2.32022 10.0788 2.18887 10.0217 2.04663C9.96453 1.90439 9.94236 1.75413 9.95645 1.60469C9.97055 1.45525 10.0206 1.30965 10.1037 1.17647C10.1868 1.04329 10.3013 0.92521 10.4404 0.829187C10.5795 0.733164 10.7403 0.661137 10.9136 0.617344C12.064 0.295522 13.2697 0.129556 14.4841 0.125854C18.0709 0.125854 21.129 1.61231 23.4158 3.23962C25.7152 4.87442 27.3755 6.75347 28.1903 7.76942C28.5121 8.16822 28.6838 8.63699 28.6838 9.11652C28.6838 9.59604 28.5121 10.0648 28.1903 10.4636C27.9911 10.7124 27.7413 11.0105 27.448 11.3432C27.3425 11.4623 27.2098 11.563 27.0573 11.6395C26.9048 11.7161 26.7356 11.7671 26.5593 11.7896C26.383 11.8121 26.2031 11.8056 26.0299 11.7705C25.8566 11.7354 25.6934 11.6725 25.5495 11.5852C25.4057 11.4979 25.284 11.3881 25.1915 11.2619C25.0989 11.1357 25.0373 10.9957 25.0102 10.8498C24.983 10.7039 24.9908 10.555 25.0332 10.4116C25.0756 10.2682 25.1517 10.1331 25.2571 10.0141C25.5251 9.7129 25.7496 9.44168 25.9289 9.21991C25.9544 9.18986 25.9681 9.15401 25.9681 9.11727C25.9681 9.08052 25.9544 9.04467 25.9289 9.01462C25.1829 8.08409 23.6801 6.39235 21.645 4.94335C19.599 3.48537 17.1511 2.37352 14.4841 2.37352Z" fill="#DFDBEE"/>
</svg>
