<svg width="71" height="97" viewBox="0 0 71 97" fill="none" xmlns="http://www.w3.org/2000/svg">
<path d="M49.8102 80.8522H10.1114C5.94453 80.8522 2.53528 77.4429 2.53528 73.2761V23.8041C2.53528 19.6372 5.94453 16.228 10.1114 16.228H49.8102C53.9771 16.228 57.3863 19.6372 57.3863 23.8041V73.2761C57.3863 77.4429 53.9771 80.8522 49.8102 80.8522Z" fill="white"/>
<path d="M49.8102 80.8522H10.1114C5.94453 80.8522 2.53528 77.4429 2.53528 73.2761V23.8041C2.53528 19.6372 5.94453 16.228 10.1114 16.228H49.8102C53.9771 16.228 57.3863 19.6372 57.3863 23.8041V73.2761C57.3863 77.4429 53.9771 80.8522 49.8102 80.8522Z" stroke="#4E5A7D" stroke-width="3.5" stroke-miterlimit="10" stroke-linecap="round" stroke-linejoin="round"/>
<path d="M53.674 94.5649C62.0842 94.5649 68.902 87.7471 68.902 79.3369C68.902 70.9267 62.0842 64.1089 53.674 64.1089C45.2638 64.1089 38.446 70.9267 38.446 79.3369C38.446 87.7471 45.2638 94.5649 53.674 94.5649Z" fill="white"/>
<path d="M53.674 94.5649C62.0842 94.5649 68.902 87.7471 68.902 79.3369C68.902 70.9267 62.0842 64.1089 53.674 64.1089C45.2638 64.1089 38.446 70.9267 38.446 79.3369C38.446 87.7471 45.2638 94.5649 53.674 94.5649Z" stroke="#4E5A7D" stroke-width="3.5" stroke-miterlimit="10" stroke-linecap="round" stroke-linejoin="round"/>
<path d="M46.7041 79.1854L51.477 83.9584L60.6442 74.7155" stroke="#4E5A7D" stroke-width="3.5" stroke-miterlimit="10" stroke-linecap="round" stroke-linejoin="round"/>
<path d="M34.8094 12.2126V5.92447C34.8094 3.19707 32.6123 1 29.8849 1C27.1575 1 24.9604 3.19707 24.9604 5.92447V12.2126H19.5814V14.1824V20.7736H40.1884V14.1824V12.2126H34.8094Z" fill="white"/>
<path d="M34.8094 12.8187V6.98512C34.8094 4.485 32.6123 2.43945 29.8849 2.43945C27.1575 2.43945 24.9604 4.485 24.9604 6.98512V12.8187H19.5814V14.637V20.7736H40.1884V14.637V12.8187H34.8094Z" stroke="#4E5A7D" stroke-width="3.5" stroke-miterlimit="10" stroke-linecap="round" stroke-linejoin="round"/>
<path d="M17.1572 39.1078H45.3404" stroke="#4E5A7D" stroke-width="3.5" stroke-miterlimit="10" stroke-linecap="round" stroke-linejoin="round"/>
<path d="M17.1572 48.5022H45.3404" stroke="#4E5A7D" stroke-width="3.5" stroke-miterlimit="10" stroke-linecap="round" stroke-linejoin="round"/>
<path d="M22.309 57.5936H40.1886" stroke="#4E5A7D" stroke-width="3.5" stroke-miterlimit="10" stroke-linecap="round" stroke-linejoin="round"/>
</svg>
